<?xml version="1.0" standalone="no"?>
<!DOCTYPE svg PUBLIC "-//W3C//DTD SVG 20010904//EN"
 "http://www.w3.org/TR/2001/REC-SVG-20010904/DTD/svg10.dtd">
<svg version="1.0" xmlns="http://www.w3.org/2000/svg"
 width="256.000000pt" height="256.000000pt" viewBox="0 0 256.000000 256.000000"
 preserveAspectRatio="xMidYMid meet">

<g transform="translate(0.000000,256.000000) scale(0.100000,-0.100000)"
fill="#000000" stroke="none">
<path d="M1700 2405 c-11 -13 -8 -30 16 -98 26 -72 29 -95 28 -192 0 -128 -18
-186 -88 -288 -39 -57 -46 -62 -88 -68 -101 -15 -166 -79 -171 -169 -2 -39 -3
-40 -39 -40 -43 0 -42 -2 -27 90 7 46 7 83 -1 129 -19 111 -52 164 -181 296
-102 103 -121 118 -136 109 -37 -23 -25 -44 90 -162 91 -94 118 -129 134 -173
29 -78 35 -143 21 -233 -16 -97 -29 -108 -82 -73 -20 15 -62 35 -93 47 -92 34
-151 35 -327 5 -136 -23 -167 -25 -219 -16 -74 13 -128 39 -190 91 -40 32 -52
38 -68 30 -30 -17 -22 -46 24 -85 56 -50 148 -92 227 -104 69 -11 87 -10 255
21 162 30 259 17 352 -45 l32 -21 -47 -51 -47 -50 -150 -5 c-142 -5 -154 -7
-215 -36 -38 -18 -170 -111 -315 -223 -254 -196 -275 -218 -233 -244 13 -9 41
8 153 94 468 358 434 339 624 339 l116 0 1 -29 1 -29 -76 -4 c-101 -4 -187
-46 -282 -136 -53 -50 -79 -84 -109 -146 -69 -141 -65 -250 14 -332 64 -66
151 -81 265 -45 82 25 148 69 220 146 83 89 123 174 129 274 l4 78 30 -1 29
-1 -3 -130 c-3 -112 -7 -138 -28 -184 -13 -30 -109 -165 -213 -300 -104 -135
-192 -252 -194 -259 -7 -18 17 -44 38 -40 16 3 350 422 404 507 49 79 65 149
66 293 l0 133 54 48 54 48 26 -46 c35 -58 55 -126 55 -183 0 -25 -12 -111 -26
-191 -36 -203 -22 -291 67 -415 43 -60 69 -79 93 -70 29 11 24 33 -18 87 -94
122 -108 196 -72 401 14 81 26 166 26 189 0 66 -27 156 -66 220 -27 44 -33 61
-25 71 18 22 187 40 246 26 94 -21 134 -47 250 -160 62 -60 120 -110 128 -110
9 0 21 10 28 21 10 20 1 32 -102 135 -121 122 -171 155 -270 180 -61 16 -190
14 -234 -2 -12 -5 -15 2 -15 32 0 38 1 39 39 40 84 4 159 74 168 158 6 52 29
77 117 130 120 72 274 83 433 31 88 -29 113 -28 113 5 0 16 -14 27 -56 46 -93
41 -178 57 -279 51 -110 -6 -194 -34 -283 -93 -35 -24 -66 -44 -68 -44 -2 0
-15 11 -29 24 l-26 24 42 62 c103 151 128 336 69 514 -36 107 -61 135 -90 101z
m-75 -731 c103 -49 68 -204 -47 -204 -52 0 -108 51 -108 99 0 46 26 90 63 106
41 18 52 18 92 -1z m-202 -206 c47 -25 72 -119 46 -171 -16 -32 -119 -136
-151 -153 -15 -8 -45 -14 -67 -14 -77 0 -142 87 -120 162 10 38 130 164 174
184 31 14 84 11 118 -8z m-337 -344 c119 -78 44 -322 -136 -443 -143 -95 -270
-91 -323 10 -49 92 28 272 159 371 106 79 233 106 300 62z"/>
<path d="M1015 1084 c-19 -20 -16 -43 8 -58 37 -23 77 35 41 61 -23 17 -29 16
-49 -3z"/>
<path d="M907 1073 c-13 -12 -7 -50 9 -64 31 -26 70 25 44 56 -13 16 -42 20
-53 8z"/>
<path d="M795 990 c-4 -12 -1 -27 5 -35 27 -33 78 -5 65 35 -4 14 -15 20 -35
20 -20 0 -31 -6 -35 -20z"/>
<path d="M1008 959 c-33 -19 -15 -69 24 -69 9 0 22 9 28 21 9 16 8 25 -6 40
-20 22 -22 22 -46 8z"/>
<path d="M880 915 c-26 -32 13 -81 48 -59 24 16 27 45 6 61 -23 17 -39 16 -54
-2z"/>
<path d="M714 886 c-12 -31 0 -51 30 -51 36 0 56 26 37 49 -17 20 -60 21 -67
2z"/>
<path d="M894 812 c-18 -12 -23 -39 -10 -57 25 -35 83 6 60 43 -13 19 -34 26
-50 14z"/>
<path d="M659 774 c-17 -20 -1 -48 31 -52 30 -5 44 11 36 42 -7 30 -45 36 -67
10z"/>
<path d="M787 763 c-14 -14 -6 -53 13 -63 15 -8 24 -6 40 10 16 16 18 25 10
40 -10 19 -49 27 -63 13z"/>
</g>
</svg>
