<?xml version="1.0" encoding="UTF-8"?>
<!-- Generated by Pixelmator Pro 3.2.3 -->
<svg width="635" height="571" viewBox="0 0 635 571" xmlns="http://www.w3.org/2000/svg" xmlns:xlink="http://www.w3.org/1999/xlink">
    <g id="Group">
        <path id="Path" fill="#000000" stroke="none" d="M 163.460953 182.84964 C 161.167694 179.418335 156.537155 178.482941 153.105911 180.786438 C 149.679855 183.074341 148.754837 187.710236 151.042725 191.141479 L 180.926453 235.931 C 182.364883 238.086609 184.73526 239.24707 187.146729 239.246002 C 188.563385 239.245392 190.005875 238.843689 191.281616 237.988953 C 194.707703 235.70105 195.63269 231.065155 193.344803 227.633911 Z"/>
        <path id="path1" fill="#000000" stroke="none" d="M 293.184235 159.979156 C 290.670074 163.251099 291.281494 167.938446 294.553375 170.447388 L 391.654236 245.07132 C 393.00882 246.122803 394.602783 246.622162 396.196533 246.62146 C 398.436096 246.620453 400.65448 245.619476 402.122314 243.707336 C 404.631256 240.435425 404.025055 235.748138 400.742767 233.239136 L 303.641907 158.615265 C 300.375183 156.08551 295.682678 156.707245 293.184113 159.979156 Z"/>
        <path id="path2" fill="#000000" stroke="none" d="M 448.449249 216.737488 C 448.652313 216.737396 448.865936 216.732117 449.074249 216.7164 C 453.188599 216.370819 456.233948 212.76535 455.888397 208.650818 L 448.380188 119.055481 C 448.034637 114.951508 444.507294 111.895691 440.319824 112.236115 C 436.205444 112.581665 433.160095 116.187134 433.505615 120.301605 L 441.013855 209.897003 C 441.338531 213.787537 444.605438 216.739166 448.449188 216.737488 Z"/>
        <path id="path3" fill="#000000" stroke="none" d="M 315.784851 40.203857 L 271.005157 92.488922 C 268.32428 95.620361 268.685699 100.338898 271.817108 103.014557 C 273.229126 104.22226 274.9534 104.815308 276.682434 104.814545 C 278.78656 104.813629 280.879913 103.922089 282.358368 102.207916 L 327.138 49.922913 C 329.824097 46.791443 329.462677 42.072937 326.32608 39.397217 C 323.184235 36.711121 318.470947 37.077759 315.784851 40.203918 Z"/>
        <path id="path4" fill="#000000" stroke="none" d="M 555.185425 314.077209 L 480.508942 291.70871 C 476.529175 290.543793 472.394836 292.77478 471.214142 296.723175 C 470.03363 300.666382 472.280273 304.832092 476.228668 306.017914 L 550.905212 328.386414 C 551.624023 328.594421 552.342773 328.698212 553.051208 328.697906 C 556.27002 328.696472 559.232544 326.611877 560.19989 323.371887 C 561.380493 319.42865 559.139038 315.26297 555.185425 314.077148 Z"/>
        <path id="path5" fill="#000000" stroke="none" d="M 453.458344 388.921967 L 371.33551 418.822144 C 367.461212 420.230103 365.463074 424.512146 366.876099 428.386627 C 367.981628 431.422516 370.847137 433.301544 373.89389 433.300201 C 374.73764 433.299805 375.602081 433.148438 376.445831 432.845947 L 458.568665 402.94577 C 462.443024 401.537842 464.441162 397.255737 463.028076 393.381287 C 461.620117 389.506989 457.358856 387.498291 453.458344 388.921906 Z"/>
        <path id="path6" fill="#000000" stroke="none" d="M 187.806549 331.838928 C 189.031754 334.645691 191.772141 336.316376 194.647049 336.315125 C 195.647049 336.314667 196.662552 336.121521 197.63121 335.688782 L 317.077484 283.37088 C 320.863129 281.718079 322.580048 277.311096 320.927277 273.535828 C 319.274567 269.760529 314.862335 268.043732 311.092285 269.696442 L 191.645966 322.014374 C 187.870697 323.672302 186.148636 328.068909 187.806549 331.838989 Z"/>
        <path id="path7" fill="#000000" stroke="none" d="M 634.16272 444.28241 C 632.041504 440.741699 627.46283 439.603088 623.916809 441.724396 L 618.199585 445.153992 C 610.485229 395.954712 597.17511 329.199219 575.03125 262.852966 C 570.05072 247.928497 564.804871 233.654816 559.329773 219.963867 L 570.291687 216.307983 C 574.197449 214.998932 576.315308 210.774139 575.006409 206.858032 C 573.697327 202.952362 569.508911 200.829254 565.556396 202.143372 L 553.620667 206.127869 C 496.295929 71.126434 414.170044 0.229248 313.970062 0.273376 C 279.360748 0.288574 246.921814 8.808044 216.913116 25.456116 L 216.908615 15.247803 C 216.906799 11.128113 213.561615 7.780518 209.436554 7.782349 C 205.316833 7.784119 201.969208 11.129272 201.971024 15.254333 L 201.979538 34.571716 C 140.440216 75.47348 89.948776 152.481049 53.133457 263.090607 C 42.647324 294.589844 34.166588 326.18158 27.310358 355.956665 L 12.326982 345.265381 C 8.966582 342.870972 4.305471 343.64917 1.911074 347.004364 C -0.483308 350.359558 0.29487 355.025879 3.655269 357.420288 L 23.786932 371.786072 C 5.635908 455.783386 0.686221 521.609619 0.618617 522.529602 C 0.323554 526.644287 3.424139 530.210632 7.528412 530.510925 C 11.627472 530.821716 15.209434 527.715881 15.514964 523.601196 C 15.639192 521.845947 20.414333 460.697693 37.264366 381.391602 L 55.942234 394.716736 C 57.260349 395.658844 58.776176 396.111359 60.276176 396.110718 C 62.604301 396.10968 64.90596 395.020081 66.358124 392.977722 C 68.75251 389.622528 67.974327 384.956207 64.613945 382.561829 L 40.75177 365.536346 C 65.624756 255.692047 113.320076 117.837708 202.000671 52.651978 L 202.017075 89.906616 C 202.01889 94.026367 205.36412 97.373962 209.489212 97.372162 C 213.608932 97.370331 216.956512 94.025116 216.954697 89.900055 L 216.933853 42.561401 C 245.238266 25.278259 277.416504 15.206726 313.984497 15.190613 C 423.989838 15.142212 494.411194 106.053894 539.057373 210.971558 L 520.784058 217.073364 C 516.878418 218.382385 514.760498 222.607208 516.069397 226.523315 C 517.107239 229.653107 520.019531 231.63089 523.144592 231.629517 C 523.920654 231.629181 524.717468 231.503815 525.503723 231.237854 L 544.751587 224.817932 C 577.423584 306.459564 595.164917 394.36908 604.278931 453.511719 L 586.600952 464.128845 C 583.060364 466.250183 581.921692 470.833984 584.042908 474.374786 C 585.450195 476.70752 587.924805 477.998138 590.461182 477.99704 C 591.768433 477.99646 593.096558 477.65213 594.299255 476.927612 L 606.644958 469.51593 C 611.190308 501.768616 612.819214 522.325256 612.897766 523.325195 C 613.180786 527.257324 616.453003 530.250671 620.338318 530.248962 C 620.515442 530.248901 620.702942 530.243591 620.885193 530.227905 C 624.999573 529.929199 628.086548 526.349792 627.787964 522.240479 C 627.751282 521.688416 625.938782 497.975952 620.620422 461.123596 L 631.622742 454.519836 C 635.152954 452.388031 636.302002 447.798981 634.170288 444.263489 Z"/>
        <path id="path8" fill="#000000" stroke="none" d="M 380.592468 481.487427 C 377.988281 481.31665 375.525208 482.59375 374.062683 484.750671 C 365.151825 497.863922 358.220154 512.257629 353.368256 527.718445 C 338.441925 507.230347 315.467651 493.0578 290.054077 489.434326 C 287.850861 489.107178 285.611572 489.81131 283.961151 491.317261 C 282.310791 492.817993 281.426392 494.985046 281.547089 497.208984 C 282.655518 518.729858 290.196289 540.183838 302.787048 557.637024 C 305.199951 560.974487 309.861786 561.732788 313.209656 559.325073 C 316.552338 556.912109 317.310669 552.245117 314.897736 548.902466 C 305.871429 536.401184 299.83902 521.523743 297.466949 506.202118 C 320.136322 512.395203 339.492798 528.620972 349.288971 550.205994 C 350.634003 553.153198 353.733704 554.938416 356.931519 554.530762 C 360.155365 554.164734 362.763672 551.772949 363.408142 548.590454 C 366.671814 532.468994 371.957153 517.889343 379.492676 504.359344 C 387.714539 523.178406 391.613831 543.031372 390.846405 562.458374 C 390.681519 566.578186 393.886108 570.05072 398.011261 570.215576 C 398.115448 570.220764 398.214386 570.220703 398.318573 570.220642 C 402.29776 570.218933 405.614105 567.066406 405.768463 563.05072 C 406.819397 536.790222 400.255463 509.933136 386.791565 485.365753 C 385.5354 483.085083 383.190979 481.612122 380.59198 481.488159 Z"/>
        <path id="path9" fill="#000000" stroke="none" d="M 525.866943 499.330078 C 523.616272 497.81546 520.730774 497.639709 518.330383 498.864655 C 501.407501 507.413696 488.002167 522.523376 481.546021 540.334229 C 480.13623 544.215088 482.138092 548.495422 486.013794 549.894775 C 489.910278 551.299316 494.174957 549.307861 495.574371 545.426941 C 499.122192 535.649353 505.274475 526.906677 513.141846 520.153931 C 512.950439 523.081055 512.753845 526.002991 512.572876 528.935303 C 512.071106 536.878235 511.548615 544.826477 510.911438 552.701416 C 510.574677 556.805664 513.638855 560.413818 517.753479 560.745361 C 517.956604 560.760864 518.164978 560.765991 518.368103 560.765869 C 522.222229 560.764221 525.481323 557.804382 525.802551 553.90332 C 526.450134 545.960327 526.962219 537.918823 527.479492 529.891846 C 527.98114 521.948975 528.503723 514.000732 529.140869 506.125854 C 529.358459 503.427856 528.102112 500.829346 525.867065 499.330322 Z"/>
        <path id="path10" fill="#000000" stroke="none" d="M 142.411438 403.53894 C 100.547432 403.557373 67.767899 456.045105 67.797394 523.041138 C 67.79921 527.171387 71.144417 530.508423 75.269478 530.506592 C 79.389198 530.504761 82.736816 527.164795 82.735001 523.034546 C 82.710045 466.367859 110.048943 418.491821 142.42363 418.477539 C 174.798294 418.463287 202.179352 466.320587 202.2043 522.981934 C 202.206116 527.112244 205.551346 530.449219 209.676361 530.447449 C 213.796112 530.445618 217.143738 527.105652 217.141922 522.975342 C 217.10202 455.980682 184.277313 403.520508 142.411987 403.53894 Z"/>
        <g id="g1">
            <g id="g2">
                <path id="path11" fill="#000000" stroke="none" d="M -41.473446 767.986572 C -42.764816 768.653809 -44.113602 769.154419 -45.514389 769.488342 C -46.9049 769.832703 -48.363091 770.010437 -49.889091 770.011108 C -54.420292 770.013062 -58.00938 768.754272 -60.661556 766.224121 C -63.318939 763.683716 -64.643387 760.246704 -64.645294 755.91333 C -64.647209 751.56958 -63.325802 748.131592 -60.670635 745.59906 C -58.020695 743.056274 -54.43272 741.783752 -49.90152 741.781738 C -48.375519 741.781128 -46.917042 741.95752 -45.52636 742.300659 C -44.125141 742.633423 -42.77599 743.132813 -41.484097 743.798889 L -41.481617 749.42395 C -42.789299 748.549561 -44.076023 747.904297 -45.336605 747.488159 C -46.602413 747.072083 -47.935818 746.864319 -49.33688 746.86499 C -51.83688 746.866089 -53.805328 747.674194 -55.231682 749.284241 C -56.663242 750.883789 -57.37587 753.092529 -57.37463 755.910217 C -57.373394 758.717529 -56.658875 760.925537 -55.225849 762.534363 C -53.79808 764.132629 -51.828926 764.928711 -49.328926 764.927612 C -47.927864 764.927002 -46.594616 764.728516 -45.329193 764.321716 C -44.068962 763.90448 -42.782726 763.252869 -41.475922 762.361572 Z"/>
            </g>
        </g>
        <g id="g3">
            <g id="g4">
                <path id="path12" fill="#000000" stroke="none" d="M -20.787624 754.622803 C -21.371067 754.362671 -21.949278 754.164978 -22.517082 754.040222 C -23.074423 753.905029 -23.636955 753.832397 -24.204628 753.832642 C -25.886909 753.833374 -27.178404 754.37561 -28.078852 755.459412 C -28.984629 756.532715 -29.431847 758.064148 -29.430965 760.064148 L -29.426819 769.480835 L -35.947609 769.483643 L -35.956596 749.067688 L -29.435808 749.064819 L -29.434332 752.418945 C -28.601576 751.085205 -27.643612 750.116028 -26.560677 749.500977 C -25.467203 748.875488 -24.160028 748.562439 -22.644419 748.561768 C -22.425684 748.561707 -22.186083 748.577209 -21.936071 748.603149 C -21.675659 748.618652 -21.300642 748.654968 -20.811026 748.706787 Z"/>
            </g>
        </g>
        <g id="g5">
            <g id="g6">
                <path id="path13" fill="#000000" stroke="none" d="M 2.835181 759.196289 L 2.836006 761.071167 L -12.434652 761.077942 C -12.267306 762.60907 -11.714725 763.754639 -10.766468 764.514648 C -9.823427 765.279907 -8.495166 765.659485 -6.786761 765.658752 C -5.411838 765.658142 -4.010863 765.459595 -2.578776 765.052734 C -1.136287 764.635437 0.342645 764.020203 1.857877 763.196655 L 1.860088 768.217407 C 0.318749 768.801453 -1.222791 769.239624 -2.764395 769.531982 C -4.305858 769.834717 -5.847521 769.991699 -7.389254 769.992371 C -11.08713 769.994019 -13.962604 769.057739 -16.015568 767.183594 C -18.057989 765.30957 -19.080082 762.679749 -19.081573 759.289124 C -19.083042 755.95575 -18.078974 753.34082 -16.064236 751.433655 C -14.054672 749.516113 -11.2895 748.556641 -7.773768 748.555054 C -4.565502 748.55365 -1.997339 749.526489 -0.064218 751.468323 C 1.863696 753.39978 2.833642 755.977417 2.835059 759.196289 Z M -3.87404 757.032532 C -3.874583 755.798157 -4.239599 754.803528 -4.95868 754.053833 C -5.682968 753.293762 -6.625855 752.908691 -7.792512 752.909241 C -9.058137 752.90979 -10.084088 753.264404 -10.875387 753.973083 C -11.666671 754.681763 -12.161079 755.702881 -12.353226 757.036255 Z"/>
            </g>
        </g>
        <g id="g7">
            <g id="g8">
                <path id="path14" fill="#000000" stroke="none" d="M 16.923777 760.273376 C 15.559243 760.273987 14.533206 760.503601 13.840735 760.96228 C 13.158656 761.420898 12.82041 762.103333 12.820807 763.004272 C 12.821173 763.837646 13.097508 764.493774 13.655012 764.962341 C 14.207292 765.42041 14.973018 765.649231 15.947047 765.648804 C 17.181421 765.648254 18.217651 765.210327 19.050594 764.334961 C 19.893955 763.449158 20.320547 762.344788 20.319965 761.021851 L 20.319633 760.271851 Z M 26.881083 757.810608 L 26.886209 769.456482 L 20.323679 769.459351 L 20.32235 766.438599 C 19.447895 767.678528 18.458759 768.580078 17.365137 769.148132 C 16.266428 769.700684 14.933238 769.982544 13.365504 769.983215 C 11.250973 769.984131 9.537112 769.375549 8.21884 768.152161 C 6.895374 766.918396 6.238388 765.314514 6.237518 763.340515 C 6.236468 760.955017 7.053401 759.204712 8.693611 758.089417 C 10.344178 756.963684 12.932462 756.400085 16.463665 756.39856 L 20.317791 756.396851 L 20.317562 755.875977 C 20.31711 754.849976 19.905327 754.10022 19.087399 753.626587 C 18.264265 753.142578 16.993343 752.898315 15.274549 752.899048 C 13.868283 752.899658 12.566343 753.040894 11.358075 753.317444 C 10.160277 753.599243 9.051041 754.016357 8.025283 754.568909 L 8.02309 749.589722 C 9.408411 749.255737 10.804035 748.999939 12.21022 748.817017 C 13.626814 748.639343 15.043428 748.544983 16.4601 748.544312 C 20.137163 748.542725 22.793749 749.270752 24.419468 750.728271 C 26.055573 752.175476 26.879532 754.534546 26.880976 757.810547 Z"/>
            </g>
        </g>
        <g id="g9">
            <g id="g10">
                <path id="path15" fill="#000000" stroke="none" d="M 40.088047 743.242676 L 40.090599 749.034424 L 46.819801 749.031433 L 46.821854 753.69812 L 40.092651 753.70105 L 40.09647 762.367737 C 40.096886 763.315674 40.284664 763.950989 40.659828 764.28418 C 41.034988 764.61731 41.774624 764.783691 42.889233 764.783203 L 46.243374 764.781677 L 46.24543 769.448364 L 40.662102 769.450806 C 38.078758 769.451965 36.245197 768.921509 35.161396 767.849121 C 34.087997 766.766235 33.555977 764.943542 33.554844 762.370605 L 33.551029 753.703918 L 30.321825 753.705383 L 30.319771 749.038696 L 33.548973 749.037292 L 33.546421 743.245544 Z"/>
            </g>
        </g>
        <g id="g11">
            <g id="g12">
                <path id="path16" fill="#000000" stroke="none" d="M 71.19455 759.166138 L 71.195374 761.041138 L 55.924717 761.047852 C 56.09206 762.578979 56.644646 763.724609 57.592899 764.484558 C 58.535942 765.249756 59.864204 765.629395 61.572609 765.628662 C 62.947529 765.628052 64.348503 765.429504 65.780594 765.022644 C 67.223083 764.605347 68.702011 763.990112 70.217247 763.166565 L 70.21946 768.187378 C 68.678116 768.771362 67.136574 769.209534 65.594971 769.501892 C 64.053513 769.804626 62.511848 769.961548 60.970116 769.96228 C 57.27224 769.963867 54.396767 769.027649 52.3438 767.153503 C 50.30138 765.27948 49.279285 762.649658 49.277794 759.259033 C 49.276325 755.925659 50.280396 753.310669 52.295132 751.403564 C 54.304695 749.485962 57.06987 748.526489 60.585598 748.524963 C 63.793865 748.52356 66.36203 749.496399 68.295151 751.438232 C 70.223061 753.369629 71.193008 755.947388 71.194427 759.166138 Z M 64.485329 757.002441 C 64.484787 755.768066 64.119766 754.773438 63.400688 754.023743 C 62.676399 753.263672 61.733513 752.878662 60.566856 752.87915 C 59.301231 752.8797 58.27528 753.234314 57.483982 753.942993 C 56.692696 754.651733 56.198288 755.672791 56.006142 757.006226 Z"/>
            </g>
        </g>
        <g id="g13">
            <g id="g14">
                <path id="path17" fill="#000000" stroke="none" d="M 90.009109 751.991333 L 90.004295 741.053894 L 96.566841 741.051025 L 96.57933 769.425659 L 90.016785 769.428528 L 90.015488 766.470154 C 89.125389 767.678894 88.141472 768.564697 87.058243 769.11731 C 85.975021 769.669922 84.714882 769.95166 83.287819 769.952271 C 80.772224 769.95343 78.709236 768.954346 77.099022 766.955017 C 75.483612 764.95575 74.680344 762.388367 74.678963 759.247803 C 74.677574 756.096802 75.478531 753.518311 77.092232 751.517578 C 78.700676 749.516846 80.762779 748.515991 83.278374 748.514832 C 84.695045 748.514221 85.945175 748.80011 87.028755 749.367371 C 88.122757 749.939819 89.11792 750.814331 90.009109 751.991089 Z M 85.723206 765.222412 C 87.108673 765.221802 88.170837 764.716187 88.910004 763.700256 C 89.643913 762.673889 90.013054 761.189331 90.012199 759.241333 C 90.011337 757.298706 89.640892 755.819641 88.906082 754.804382 C 88.166039 753.778687 87.103271 753.26355 85.717941 753.26416 C 84.327271 753.264771 83.265099 753.780884 82.531151 754.80719 C 81.792 755.82312 81.428093 757.30249 81.428947 759.245117 C 81.429802 761.192993 81.795036 762.677246 82.535065 763.703064 C 83.269882 764.718323 84.332672 765.223022 85.723206 765.222412 Z"/>
            </g>
        </g>
        <g id="g15">
            <g id="g16">
                <path id="path18" fill="#000000" stroke="none" d="M 126.717552 765.204224 C 128.118622 765.203613 129.186142 764.697937 129.92514 763.682007 C 130.659058 762.655701 131.028214 761.171143 131.027359 759.223145 C 131.026505 757.280518 130.656036 755.801453 129.921219 754.786194 C 129.181198 753.760498 128.11322 753.245361 126.712288 753.245972 C 125.306007 753.246582 124.23333 753.762695 123.48378 754.789001 C 122.744644 755.820557 122.380699 757.299927 122.381546 759.226929 C 122.382401 761.159241 122.747643 762.638306 123.487686 763.66394 C 124.238144 764.694885 125.311272 765.204712 126.717552 765.204102 Z M 122.378387 751.976929 C 123.278931 750.7995 124.273354 749.924011 125.356445 749.350586 C 126.449944 748.78241 127.710197 748.495361 129.126846 748.494751 C 131.652847 748.493652 133.721039 749.492737 135.336456 751.492065 C 136.946655 753.491333 137.755127 756.069092 137.756516 759.220154 C 137.757904 762.36084 136.951752 764.928772 135.343246 766.929504 C 133.729599 768.930176 131.662292 769.931152 129.136292 769.932251 C 127.719635 769.932861 126.459106 769.652161 125.365143 769.100586 C 124.281548 768.533325 123.286346 767.653625 122.384758 766.455994 L 122.386063 769.414429 L 115.86528 769.417236 L 115.852791 741.042603 L 122.373573 741.039734 Z"/>
            </g>
        </g>
        <g id="g17">
            <g id="g18">
                <path id="path19" fill="#000000" stroke="none" d="M 139.8927 748.990723 L 146.413513 748.987854 L 151.919601 762.840088 L 156.58017 748.983398 L 163.100983 748.980469 L 154.527481 771.338928 C 153.663879 773.599731 152.659454 775.183472 151.508789 776.090271 C 150.352905 777.007446 148.842697 777.46637 146.967773 777.467224 L 143.176056 777.468872 L 143.174164 773.177124 L 145.215759 773.17627 C 146.325134 773.175781 147.132324 772.993103 147.632172 772.633545 C 148.142456 772.284302 148.538025 771.65918 148.818848 770.758057 L 149.006104 770.195435 Z"/>
            </g>
        </g>
        <g id="g19">
            <g id="g20">
                <path id="path20" fill="#000000" stroke="none" d="M 195.850647 749.61145 L 195.852829 754.569824 C 194.461914 753.987122 193.112793 753.550171 191.810654 753.259094 C 190.50325 752.968018 189.274063 752.822693 188.123001 752.823242 C 186.883408 752.82373 185.961594 752.980408 185.352417 753.282776 C 184.753586 753.590332 184.456924 754.069641 184.457199 754.720642 C 184.457428 755.236267 184.686768 755.631958 185.145203 755.907837 C 185.603668 756.188843 186.421478 756.396851 187.603882 756.531738 L 188.749802 756.697876 C 192.093735 757.128723 194.34404 757.830872 195.500717 758.799072 C 196.652176 759.772522 197.231033 761.293091 197.231949 763.36084 C 197.23291 765.543091 196.426315 767.184143 194.817429 768.278564 C 193.218964 769.36261 190.828552 769.905396 187.651489 769.906799 C 186.286957 769.90741 184.885849 769.803833 183.443069 769.59613 C 182.010727 769.388428 180.536575 769.07135 179.025986 768.639771 L 179.023804 763.681335 C 180.315735 764.321411 181.638824 764.799988 183.003647 765.117065 C 184.378693 765.423767 185.774643 765.574158 187.191299 765.573547 C 188.467361 765.572998 189.425629 765.400696 190.06601 765.051453 C 190.701248 764.691772 191.023956 764.165649 191.023651 763.467712 C 191.023392 762.884399 190.79924 762.457397 190.35643 762.176331 C 189.908356 761.884888 189.028076 761.666504 187.710251 761.510864 L 186.564346 761.365479 C 183.657913 761.007385 181.626419 760.336426 180.459335 759.347412 C 179.292206 758.363525 178.708237 756.868958 178.707367 754.868958 C 178.706406 752.702271 179.440079 751.097839 180.913498 750.05542 C 182.39743 749.002686 184.673203 748.470459 187.74614 748.469116 C 188.938828 748.468567 190.194061 748.567017 191.517044 748.759094 C 192.850479 748.940796 194.293259 749.226624 195.850769 749.611328 Z"/>
            </g>
        </g>
        <g id="g21">
            <g id="g22">
                <path id="path21" fill="#000000" stroke="none" d="M 211.842438 753.12439 C 210.394562 753.125 209.290512 753.646362 208.530594 754.688354 C 207.765396 755.730347 207.385864 757.230469 207.386719 759.188843 C 207.387589 761.147278 207.768433 762.647095 208.534546 763.688354 C 209.29541 764.719299 210.399765 765.229126 211.847763 765.228516 C 213.26442 765.227905 214.347534 764.71698 215.097076 763.685486 C 215.857025 762.643494 216.241776 761.143372 216.240906 759.184998 C 216.240051 757.226563 215.853989 755.726746 215.093124 754.685486 C 214.342667 753.644165 213.259094 753.123779 211.842438 753.12439 Z M 211.840378 748.457703 C 215.350754 748.456177 218.095978 749.408081 220.070816 751.308228 C 222.040466 753.197998 223.031204 755.82251 223.032684 759.181885 C 223.034164 762.530762 222.045731 765.15625 220.077759 767.058105 C 218.104584 768.949646 215.360184 769.893494 211.849808 769.89502 C 208.318588 769.896606 205.562988 768.955078 203.577759 767.065369 C 201.587326 765.165161 200.596573 762.540649 200.595108 759.191711 C 200.593628 755.832397 201.582031 753.206909 203.570816 751.315491 C 205.554382 749.413574 208.309158 748.45929 211.840378 748.457703 Z"/>
            </g>
        </g>
        <g id="g23">
            <g id="g24">
                <path id="path22" fill="#000000" stroke="none" d="M 238.63942 765.154968 C 240.040482 765.154358 241.108002 764.648682 241.847 763.632751 C 242.580917 762.606384 242.950073 761.121887 242.949219 759.173889 C 242.948364 757.231201 242.577911 755.752197 241.843079 754.736877 C 241.103073 753.711182 240.035095 753.196106 238.634155 753.196716 C 237.227875 753.197327 236.155197 753.71344 235.40564 754.739746 C 234.666504 755.771301 234.302567 757.25061 234.303406 759.177673 C 234.30426 761.109985 234.66951 762.588989 235.409546 763.614685 C 236.160004 764.64563 237.233139 765.155457 238.63942 765.154846 Z M 234.300247 751.927673 C 235.20079 750.750244 236.195221 749.874756 237.278305 749.301331 C 238.371811 748.733154 239.632065 748.446106 241.048721 748.445496 C 243.574722 748.444397 245.642914 749.443481 247.258316 751.442749 C 248.868515 753.442017 249.676987 756.019836 249.678375 759.170898 C 249.679764 762.311523 248.873611 764.879517 247.265121 766.880249 C 245.651459 768.88092 243.584152 769.881836 241.058151 769.882935 C 239.641495 769.883545 238.380966 769.602905 237.287003 769.05127 C 236.203415 768.48407 235.208206 767.60437 234.306625 766.406738 L 234.307922 769.365112 L 227.78714 769.367981 L 227.774658 740.993347 L 234.295441 740.990479 Z"/>
            </g>
        </g>
        <g id="g25">
            <g id="g26">
                <path id="path23" fill="#000000" stroke="none" d="M 254.507309 748.940247 L 261.028137 748.937378 L 261.037109 769.353394 L 254.516296 769.356262 Z M 254.503799 740.981873 L 261.024628 740.979004 L 261.026978 746.312317 L 254.506149 746.315186 Z"/>
            </g>
        </g>
        <g id="g27">
            <g id="g28">
                <path id="path24" fill="#000000" stroke="none" d="M 287.823303 756.904114 L 287.828766 769.341614 L 281.266235 769.344482 L 281.262054 759.823669 C 281.261261 758.063293 281.219086 756.844482 281.135437 756.177856 C 281.051788 755.51123 280.91095 755.021729 280.71814 754.698853 C 280.467957 754.282288 280.118835 753.959534 279.676025 753.720154 C 279.243622 753.485962 278.748779 753.366394 278.196655 753.366638 C 276.832123 753.367249 275.764618 753.898926 274.989075 754.951416 C 274.208282 755.993408 273.823517 757.446655 273.824341 759.30603 L 273.828766 769.347656 L 267.307953 769.350464 L 267.29895 748.934509 L 273.819763 748.931641 L 273.821075 751.910828 C 274.804932 750.733276 275.846191 749.857788 276.945007 749.284363 C 278.054108 748.716187 279.277954 748.429199 280.611298 748.428589 C 282.970612 748.427551 284.762695 749.155945 285.987183 750.613708 C 287.206573 752.061035 287.822083 754.15448 287.823303 756.904663 Z"/>
            </g>
        </g>
        <g id="g29">
            <g id="g30">
                <path id="path25" fill="#000000" stroke="none" d="M 309.819397 749.561279 L 309.821564 754.519653 C 308.430664 753.93689 307.081512 753.5 305.779388 753.208923 C 304.471985 752.917847 303.242798 752.772522 302.091736 752.773071 C 300.852142 752.77356 299.930328 752.930237 299.321167 753.232605 C 298.722321 753.540161 298.425659 754.019409 298.425934 754.670471 C 298.426178 755.186096 298.655487 755.581787 299.113922 755.857666 C 299.572418 756.138672 300.390228 756.34668 301.572601 756.481567 L 302.718536 756.647705 C 306.062469 757.078552 308.312775 757.780701 309.469452 758.748901 C 310.620911 759.722351 311.199768 761.24292 311.200684 763.310669 C 311.20166 765.49292 310.39505 767.133972 308.786163 768.228394 C 307.187714 769.312439 304.797272 769.855225 301.620209 769.856628 C 300.255676 769.857178 298.854584 769.753662 297.411804 769.545959 C 295.979462 769.338257 294.50531 769.021179 292.99472 768.5896 L 292.992554 763.631165 C 294.284485 764.27124 295.607574 764.749817 296.972382 765.066895 C 298.347443 765.373596 299.743378 765.523987 301.160034 765.523376 C 302.436096 765.522827 303.394348 765.350525 304.034729 765.001282 C 304.669983 764.641602 304.992706 764.115479 304.992401 763.417542 C 304.992126 762.834229 304.767975 762.407227 304.325165 762.12616 C 303.877106 761.834717 302.996826 761.616333 301.678986 761.460693 L 300.533081 761.315308 C 297.626648 760.957214 295.595154 760.286255 294.42807 759.297241 C 293.260956 758.313354 292.676971 756.818787 292.676086 754.818787 C 292.67514 752.6521 293.408813 751.047668 294.882233 750.005249 C 296.36618 748.952515 298.641937 748.420288 301.714874 748.418945 C 302.907562 748.418396 304.162811 748.516846 305.485779 748.708923 C 306.819214 748.890625 308.261993 749.176453 309.819519 749.561157 Z"/>
            </g>
        </g>
        <g id="g31">
            <g id="g32">
                <path id="path26" fill="#000000" stroke="none" d="M 336.480988 759.049377 L 336.481812 760.924316 L 321.211151 760.93103 C 321.37851 762.462158 321.931061 763.607788 322.879333 764.367737 C 323.822357 765.132996 325.150635 765.512573 326.859039 765.511841 C 328.233978 765.51123 329.634949 765.312683 331.067017 764.905823 C 332.509521 764.488525 333.988434 763.873291 335.503662 763.049744 L 335.50589 768.070557 C 333.964539 768.654541 332.423035 769.092712 330.881409 769.385071 C 329.339935 769.687866 327.798248 769.844788 326.256531 769.845459 C 322.558655 769.847107 319.683197 768.910889 317.630249 767.036743 C 315.58783 765.16272 314.565735 762.532837 314.56424 759.142212 C 314.562775 755.808838 315.566833 753.193909 317.581573 751.286743 C 319.591125 749.369202 322.356293 748.409729 325.87204 748.408142 C 329.080292 748.406738 331.648468 749.379578 333.581573 751.321411 C 335.509491 753.252869 336.479431 755.830566 336.480865 759.049377 Z M 329.771759 756.88562 C 329.77124 755.651245 329.406189 754.656616 328.687103 753.906921 C 327.962799 753.146851 327.019958 752.761841 325.853302 752.762329 C 324.587646 752.762878 323.561707 753.117493 322.770416 753.826172 C 321.979126 754.534912 321.484711 755.555969 321.292542 756.889404 Z"/>
            </g>
        </g>
        <g id="g33">
            <g id="g34">
                <path id="path27" fill="#000000" stroke="none" d="M 356.592529 754.456665 C 356.009125 754.196472 355.430908 753.99884 354.863098 753.874084 C 354.305725 753.738892 353.743195 753.66626 353.175507 753.666504 C 351.493256 753.667236 350.201782 754.209473 349.3013 755.293274 C 348.395538 756.366577 347.948334 757.897949 347.949219 759.897949 L 347.953369 769.314636 L 341.432556 769.317505 L 341.423553 748.90155 L 347.944366 748.898682 L 347.945862 752.252808 C 348.778595 750.919067 349.736542 749.949829 350.819519 749.334839 C 351.912994 748.709351 353.220123 748.396301 354.735748 748.39563 C 354.954498 748.395508 355.194061 748.411072 355.444092 748.437012 C 355.704529 748.452515 356.079529 748.48877 356.569122 748.540649 Z"/>
            </g>
        </g>
        <g id="g35">
            <g id="g36">
                <path id="path28" fill="#000000" stroke="none" d="M 373.713165 765.845398 C 372.823059 767.028076 371.839111 767.903564 370.75589 768.471741 C 369.672821 769.029541 368.412567 769.306152 366.985504 769.306763 C 364.49588 769.307861 362.443451 768.32959 360.817505 766.372009 C 359.191589 764.403931 358.378113 761.904297 358.37677 758.873047 C 358.375427 755.820923 359.186829 753.320557 360.810913 751.372009 C 362.43512 749.412842 364.486694 748.432922 366.976318 748.431824 C 368.403381 748.431152 369.663879 748.717041 370.747437 749.284302 C 371.831055 749.841125 372.815826 750.715698 373.707031 751.908081 L 373.705688 748.887268 L 380.268188 748.884399 L 380.276276 767.239014 C 380.27771 770.515015 379.242371 773.020691 377.175446 774.76123 C 375.103271 776.496521 372.09848 777.367554 368.155792 777.369324 C 366.890167 777.369873 365.661011 777.271484 364.468231 777.079285 C 363.270203 776.881897 362.072144 776.585571 360.863708 776.185059 L 360.861481 771.101685 C 362.012817 771.752197 363.132782 772.236084 364.216248 772.558594 C 365.31012 772.875854 366.414337 773.036804 367.529022 773.036316 C 369.664459 773.0354 371.226624 772.565918 372.21582 771.638428 C 373.215424 770.705688 373.714783 769.241882 373.713898 767.241882 Z M 369.415802 753.139038 C 368.066864 753.139587 367.009796 753.640076 366.249786 754.640381 C 365.500214 755.63031 365.125854 757.036743 365.126648 758.870117 C 365.127472 760.734619 365.487457 762.151123 366.211884 763.119629 C 366.946686 764.077637 368.014648 764.556274 369.420776 764.555664 C 370.78009 764.555054 371.83725 764.065002 372.586823 763.075073 C 373.336365 762.074707 373.710754 760.673523 373.709961 758.866333 C 373.709167 757.032959 373.333527 755.626892 372.583099 754.637573 C 371.832672 753.637939 370.775055 753.138428 369.415741 753.139038 Z"/>
            </g>
        </g>
        <g id="g37">
            <g id="g38">
                <path id="path29" fill="#000000" stroke="none" d="M 406.939331 759.018311 L 406.940155 760.893311 L 391.669495 760.900024 C 391.836853 762.431152 392.389404 763.576782 393.337677 764.336731 C 394.280701 765.101929 395.608948 765.481567 397.317383 765.480835 C 398.692322 765.480225 400.093292 765.281677 401.52536 764.874817 C 402.967865 764.45752 404.446777 763.842285 405.961975 763.018738 L 405.964203 768.039551 C 404.422882 768.623535 402.881317 769.061707 401.339722 769.354065 C 399.798279 769.65686 398.256592 769.813721 396.714844 769.814453 C 393.016968 769.81604 390.14151 768.879822 388.088562 767.005737 C 386.046173 765.131653 385.024078 762.501831 385.022583 759.111206 C 385.021118 755.777832 386.025146 753.162842 388.039856 751.255737 C 390.049469 749.338196 392.814606 748.378662 396.330353 748.377136 C 399.538605 748.375732 402.106781 749.348572 404.039886 751.290405 C 405.967865 753.221802 406.937744 755.799561 406.939148 759.018311 Z M 400.230072 756.854614 C 400.229523 755.620239 399.864532 754.62561 399.145447 753.875916 C 398.421173 753.115845 397.478271 752.730835 396.311646 752.731323 C 395.046021 752.731873 394.02005 753.086487 393.228729 753.795166 C 392.437469 754.503906 391.943054 755.524963 391.750885 756.858398 Z"/>
            </g>
        </g>
        <g id="g39">
            <g id="g40">
                <path id="path30" fill="#000000" stroke="none" d="M 409.189575 748.872192 L 415.710327 748.869263 L 421.216431 762.721558 L 425.877014 748.864807 L 432.397827 748.861938 L 423.824371 771.220398 C 422.960724 773.481201 421.956299 775.064941 420.805634 775.97168 C 419.64978 776.888916 418.139557 777.347839 416.264618 777.348633 L 412.47287 777.350342 L 412.470978 773.058594 L 414.512604 773.057678 C 415.621979 773.05719 416.429199 772.874512 416.929047 772.514954 C 417.43927 772.165771 417.834869 771.540588 418.115723 770.639526 L 418.302917 770.076904 Z"/>
            </g>
        </g>
        <g id="g41">
            <g id="g42">
                <path id="path31" fill="#000000" stroke="none" d="M -49.927513 778.448975 L -49.925621 782.740723 L -53.529755 782.74231 C -54.446419 782.742676 -55.092213 782.909668 -55.466995 783.243164 C -55.831436 783.57666 -56.008259 784.160034 -56.007893 784.993408 L -56.007267 786.410034 L -50.423939 786.407593 L -50.421886 791.074219 L -56.005211 791.076721 L -55.99828 806.82605 L -62.519085 806.828918 L -62.526016 791.07959 L -65.776016 791.080994 L -65.778069 786.414307 L -62.528072 786.412903 L -62.528694 784.996216 C -62.529671 782.777466 -61.91581 781.13147 -60.676735 780.057983 C -59.442833 778.989746 -57.521175 778.452454 -54.906647 778.451294 Z"/>
            </g>
        </g>
        <g id="g43">
            <g id="g44">
                <path id="path32" fill="#000000" stroke="none" d="M -31.927427 791.96106 C -32.51088 791.700867 -33.089085 791.503235 -33.656887 791.378479 C -34.214245 791.243286 -34.776768 791.170654 -35.344448 791.170898 C -37.026714 791.171631 -38.318207 791.713867 -39.218662 792.797668 C -40.124447 793.870972 -40.571651 795.402344 -40.57077 797.402344 L -40.566624 806.819031 L -47.087421 806.821899 L -47.096409 786.405884 L -40.575611 786.403076 L -40.574135 789.757202 C -39.741386 788.423462 -38.783417 787.454224 -37.700489 786.839233 C -36.607014 786.213745 -35.299831 785.900696 -33.784229 785.900024 C -33.565487 785.899902 -33.325897 785.915466 -33.075886 785.941406 C -32.815464 785.956909 -32.440449 785.993164 -31.950838 786.045044 Z"/>
            </g>
        </g>
        <g id="g45">
            <g id="g46">
                <path id="path33" fill="#000000" stroke="none" d="M -18.974453 790.559326 C -20.422329 790.559998 -21.526363 791.081299 -22.286295 792.123352 C -23.051462 793.165344 -23.431021 794.665405 -23.430159 796.62384 C -23.429296 798.582214 -23.048416 800.082031 -22.282333 801.123352 C -21.521473 802.154236 -20.417122 802.664124 -18.969124 802.663452 C -17.552452 802.662842 -16.469349 802.151978 -15.719804 801.120422 C -14.959856 800.07843 -14.575079 798.578369 -14.575941 796.619934 C -14.576803 794.661499 -14.962886 793.161743 -15.723766 792.120422 C -16.474224 791.079102 -17.557781 790.558716 -18.974453 790.559326 Z M -18.976509 785.8927 C -15.466117 785.891113 -12.720886 786.843018 -10.74605 788.743164 C -8.776423 790.632996 -7.785673 793.257446 -7.784194 796.616821 C -7.78272 799.965759 -8.771142 802.591248 -10.739116 804.493042 C -12.712282 806.384583 -15.456679 807.328491 -18.96707 807.330017 C -22.498274 807.331543 -25.253891 806.390076 -27.239115 804.500305 C -29.229559 802.600098 -30.220308 799.975586 -30.221783 796.626709 C -30.223263 793.267334 -29.23484 790.641846 -27.246048 788.750427 C -25.262495 786.848511 -22.507711 785.894226 -18.976509 785.8927 Z"/>
            </g>
        </g>
        <g id="g47">
            <g id="g48">
                <path id="path34" fill="#000000" stroke="none" d="M 15.879574 789.773315 C 16.696722 788.512573 17.675512 787.543335 18.815752 786.87616 C 19.95088 786.208984 21.200779 785.875122 22.565311 785.874512 C 24.909046 785.873474 26.695896 786.601868 27.920416 788.059631 C 29.155428 789.506958 29.7761 791.600403 29.777311 794.350525 L 29.782787 806.788025 L 23.220259 806.790894 L 23.21557 796.14502 L 23.215361 795.665833 C 23.225704 795.48877 23.236 795.23877 23.235857 794.915833 C 23.235222 793.473145 23.016029 792.431519 22.588654 791.791077 C 22.171696 791.140198 21.489254 790.812378 20.546612 790.812805 C 19.307034 790.813354 18.348978 791.329407 17.672367 792.355652 C 16.990519 793.371582 16.642214 794.845703 16.632641 796.772766 L 16.637053 806.793579 L 10.074522 806.796448 L 10.069836 796.150635 C 10.06884 793.890198 9.870278 792.437073 9.48459 791.796753 C 9.093663 791.145874 8.400816 790.818054 7.400815 790.818481 C 6.150816 790.819031 5.182247 791.335083 4.505636 792.361328 C 3.823786 793.377258 3.485899 794.841003 3.486743 796.75769 L 3.491164 806.799255 L -3.071366 806.802124 L -3.080354 786.386169 L 3.482176 786.383301 L 3.483487 789.362427 C 4.285058 788.21106 5.201393 787.340942 6.23234 786.757141 C 7.273755 786.17334 8.419424 785.881165 9.669424 785.880615 C 11.086081 785.880005 12.336232 786.223145 13.419873 786.89978 C 14.503502 787.581604 15.321657 788.539612 15.879528 789.773621 Z"/>
            </g>
        </g>
        <g id="g49">
            <g id="g50">
                <path id="path35" fill="#000000" stroke="none" d="M 55.984703 780.56897 L 55.987251 786.360718 L 62.716438 786.357788 L 62.718494 791.024414 L 55.989307 791.027405 L 55.993122 799.694092 C 55.993538 800.641968 56.181305 801.277344 56.556465 801.610474 C 56.931629 801.943665 57.67128 802.109985 58.785889 802.109497 L 62.140015 802.108032 L 62.142067 806.774658 L 56.558743 806.777161 C 53.975414 806.77832 52.141834 806.247864 51.058037 805.175415 C 49.984638 804.09259 49.452614 802.269897 49.451481 799.69696 L 49.447666 791.030273 L 46.218479 791.031738 L 46.216423 786.365051 L 49.44561 786.363647 L 49.443062 780.571899 Z"/>
            </g>
        </g>
        <g id="g51">
            <g id="g52">
                <path id="path36" fill="#000000" stroke="none" d="M 87.23037 794.325806 L 87.235847 806.763245 L 80.673317 806.766113 L 80.669144 797.286926 C 80.668358 795.495178 80.626144 794.266174 80.542519 793.599487 C 80.458885 792.932861 80.318039 792.443359 80.125198 792.120483 C 79.875015 791.703979 79.525917 791.381165 79.083092 791.141785 C 78.650711 790.907593 78.155861 790.788025 77.603752 790.788269 C 76.23922 790.788879 75.171722 791.320618 74.396179 792.373047 C 73.615372 793.415039 73.230606 794.868347 73.23143 796.727661 L 73.235847 806.769287 L 66.71505 806.772156 L 66.70256 778.397461 L 73.223358 778.394592 L 73.228172 789.332092 C 74.212029 788.154541 75.253265 787.279053 76.352074 786.705627 C 77.461197 786.137451 78.685043 785.850464 80.018372 785.849854 C 82.377701 785.848816 84.169754 786.577209 85.394272 788.034973 C 86.613647 789.4823 87.229156 791.575745 87.23037 794.325867 Z"/>
            </g>
        </g>
        <g id="g53">
            <g id="g54">
                <path id="path37" fill="#000000" stroke="none" d="M 113.664124 796.480835 L 113.664948 798.355713 L 98.394287 798.362488 C 98.561623 799.893555 99.114189 801.039185 100.062462 801.799194 C 101.005486 802.564392 102.333748 802.944031 104.042152 802.943298 C 105.417091 802.942688 106.818062 802.744141 108.250168 802.33728 C 109.692642 801.919983 111.171555 801.304749 112.686821 800.481201 L 112.689026 805.501953 C 111.147659 806.085999 109.606133 806.52417 108.064514 806.816528 C 106.523056 807.119263 104.981407 807.276245 103.439659 807.276917 C 99.741814 807.278503 96.86631 806.342285 94.813362 804.46814 C 92.770935 802.594116 91.748848 799.964294 91.747353 796.573608 C 91.745888 793.240295 92.749954 790.625366 94.764694 788.718201 C 96.774239 786.800659 99.539444 785.841125 103.055161 785.8396 C 106.263443 785.838196 108.831589 786.811035 110.764725 788.752869 C 112.692635 790.684265 113.662552 793.261963 113.663971 796.480774 Z M 106.954887 794.317078 C 106.954346 793.082703 106.58931 792.088074 105.870262 791.338379 C 105.145958 790.578247 104.203072 790.193237 103.036415 790.193787 C 101.77079 790.194336 100.74482 790.54895 99.953537 791.257629 C 99.162254 791.966309 98.667862 792.987427 98.4757 794.320801 Z"/>
            </g>
        </g>
        <g id="g55">
            <g id="g56">
                <path id="path38" fill="#000000" stroke="none" d="M 131.890488 779.535583 L 139.723831 779.532104 L 149.62793 798.194458 L 149.619705 779.527771 L 156.265549 779.524841 L 156.277527 806.732849 L 148.444214 806.736328 L 138.540115 788.073975 L 138.54834 806.740662 L 131.902466 806.743591 Z"/>
            </g>
        </g>
        <g id="g57">
            <g id="g58">
                <path id="path39" fill="#000000" stroke="none" d="M 172.556778 790.474976 C 171.108902 790.475647 170.004883 790.996948 169.244934 792.039001 C 168.479767 793.080994 168.100204 794.581116 168.101074 796.53949 C 168.101929 798.497925 168.482819 799.997742 169.248901 801.039001 C 170.009766 802.069946 171.114105 802.579773 172.562103 802.579163 C 173.97876 802.578491 175.061874 802.067627 175.811432 801.036133 C 176.571381 799.994141 176.956146 798.494019 176.955292 796.535645 C 176.954422 794.577209 176.568359 793.077393 175.807465 792.036133 C 175.057007 790.994751 173.973434 790.474365 172.556778 790.474976 Z M 172.554718 785.80835 C 176.065125 785.806763 178.810333 786.758728 180.785172 788.658875 C 182.754807 790.548645 183.74556 793.173157 183.74704 796.532471 C 183.748505 799.881409 182.760071 802.506958 180.792099 804.408691 C 178.818939 806.300293 176.07457 807.244141 172.564163 807.245667 C 169.032974 807.247253 166.277344 806.305725 164.292099 804.416016 C 162.301666 802.515808 161.310928 799.891296 161.309448 796.542358 C 161.307968 793.183044 162.296402 790.557495 164.285172 788.666138 C 166.268738 786.76416 169.023529 785.809937 172.554718 785.80835 Z"/>
            </g>
        </g>
        <g id="g59">
            <g id="g60">
                <path id="path40" fill="#000000" stroke="none" d="M 188.273987 798.760376 L 188.268509 786.301941 L 194.831039 786.299072 L 194.83194 788.340698 C 194.832428 789.455261 194.822632 790.840698 194.812958 792.507324 C 194.798065 794.174011 194.793335 795.288574 194.793579 795.840698 C 194.794312 797.496948 194.836487 798.684387 194.920151 799.403198 C 195.014221 800.127075 195.160294 800.647827 195.358337 800.965515 C 195.634552 801.397705 195.988892 801.730835 196.42128 801.965027 C 196.848465 802.188843 197.343292 802.297974 197.900604 802.297729 C 199.259949 802.297119 200.327469 801.775818 201.1082 800.733765 C 201.883774 799.691772 202.273758 798.243652 202.272949 796.37915 L 202.268509 786.295776 L 208.789322 786.292908 L 208.798309 806.708923 L 202.277496 806.711792 L 202.276184 803.753418 C 201.287155 804.951782 200.245911 805.832397 199.152298 806.400635 C 198.053574 806.953186 196.840134 807.234985 195.50679 807.235596 C 193.157883 807.236633 191.365814 806.518677 190.13092 805.071289 C 188.890701 803.62915 188.275208 801.525146 188.273987 798.759521 Z"/>
            </g>
        </g>
        <g id="g61">
            <g id="g62">
                <path id="path41" fill="#000000" stroke="none" d="M 235.600143 794.260437 L 235.605606 806.697937 L 229.043091 806.700806 L 229.038895 797.179993 C 229.038116 795.419617 228.995926 794.200806 228.912292 793.53418 C 228.828674 792.867554 228.687836 792.378052 228.49498 792.055176 C 228.244797 791.638611 227.895691 791.315857 227.452896 791.076477 C 227.020477 790.842285 226.525635 790.722717 225.973511 790.722961 C 224.608978 790.723572 223.541504 791.255249 222.765961 792.307739 C 221.985168 793.349731 221.600372 794.80304 221.601196 796.662354 L 221.605621 806.703979 L 215.084839 806.706787 L 215.075851 786.290833 L 221.596619 786.287964 L 221.597931 789.267151 C 222.581787 788.089661 223.623032 787.214111 224.721878 786.640747 C 225.830963 786.07251 227.05481 785.785522 228.388153 785.784912 C 230.747498 785.783936 232.539536 786.512268 233.764053 787.970032 C 234.983444 789.417358 235.598923 791.510864 235.600143 794.260986 Z"/>
            </g>
        </g>
        <g id="g63">
            <g id="g64">
                <path id="path42" fill="#000000" stroke="none" d="M 254.937347 779.481384 L 266.583221 779.476257 C 270.041626 779.474731 272.692902 780.244385 274.542633 781.785278 C 276.402679 783.315674 277.335999 785.502869 277.33725 788.346619 C 277.338501 791.195557 276.407196 793.388611 274.548431 794.931152 C 272.700165 796.473572 270.049438 797.245667 266.591034 797.247192 L 261.94519 797.249268 L 261.949341 806.686707 L 254.949326 806.689819 Z M 261.939575 784.561646 L 261.942932 792.165771 L 265.838806 792.164063 C 267.198151 792.163452 268.244934 791.829712 268.984253 791.16272 C 269.733948 790.495728 270.108551 789.558044 270.108002 788.34967 C 270.107483 787.13092 269.732056 786.193542 268.981781 785.537598 C 268.241882 784.886902 267.194916 784.559204 265.835449 784.559814 Z"/>
            </g>
        </g>
        <g id="g65">
            <g id="g66">
                <path id="path43" fill="#000000" stroke="none" d="M 297.181915 791.816162 C 296.59845 791.555969 296.020264 791.358337 295.452454 791.233582 C 294.895111 791.098389 294.332581 791.025757 293.764893 791.026001 C 292.082642 791.026733 290.791138 791.56897 289.890656 792.652771 C 288.984894 793.726074 288.537689 795.257446 288.538574 797.257446 L 288.542725 806.674133 L 282.021942 806.677002 L 282.012939 786.260986 L 288.533722 786.258179 L 288.535187 789.612305 C 289.36795 788.278564 290.325928 787.309326 291.408844 786.694336 C 292.502319 786.068848 293.809509 785.755798 295.325104 785.755127 C 295.543854 785.755005 295.783447 785.770569 296.033447 785.796509 C 296.293884 785.812012 296.668884 785.848267 297.158508 785.900146 Z"/>
            </g>
        </g>
        <g id="g67">
            <g id="g68">
                <path id="path44" fill="#000000" stroke="none" d="M 310.129669 790.414429 C 308.681824 790.4151 307.577789 790.936401 306.817841 791.978455 C 306.052673 793.020447 305.673096 794.520508 305.673981 796.478943 C 305.674835 798.437317 306.055695 799.937134 306.821777 800.978455 C 307.582642 802.009338 308.687012 802.519226 310.13501 802.518555 C 311.551697 802.517944 312.634766 802.00708 313.384308 800.975525 C 314.144257 799.933533 314.529053 798.433472 314.528198 796.475037 C 314.527313 794.516663 314.141266 793.016846 313.380371 791.975525 C 312.629913 790.934204 311.546356 790.413818 310.129669 790.414429 Z M 310.127625 785.747803 C 313.638031 785.746216 316.38324 786.69812 318.358093 788.598267 C 320.327698 790.488098 321.318451 793.112549 321.319916 796.471924 C 321.321411 799.820862 320.333008 802.44635 318.365021 804.348145 C 316.391846 806.239685 313.647461 807.183594 310.137054 807.18512 C 306.605865 807.186646 303.85022 806.245178 301.865021 804.355408 C 299.874573 802.4552 298.88382 799.830688 298.882355 796.481812 C 298.880859 793.122437 299.869293 790.496948 301.858093 788.60553 C 303.841644 786.703613 306.596436 785.749329 310.127625 785.747803 Z"/>
            </g>
        </g>
        <g id="g69">
            <g id="g70">
                <path id="path45" fill="#000000" stroke="none" d="M 326.070618 786.242065 L 332.591431 786.239258 L 332.60025 806.280518 C 332.60144 809.014954 331.940918 811.10376 330.62381 812.552246 C 329.317139 813.995483 327.416504 814.720337 324.916504 814.721436 L 321.687286 814.722839 L 321.685394 810.431091 L 322.831238 810.430603 C 324.065613 810.430054 324.914459 810.148438 325.372467 809.59613 C 325.840973 809.038635 326.080078 807.934326 326.079346 806.283325 Z M 326.067108 778.283691 L 332.587921 778.280823 L 332.590271 783.614136 L 326.069458 783.617004 Z"/>
            </g>
        </g>
        <g id="g71">
            <g id="g72">
                <path id="path46" fill="#000000" stroke="none" d="M 359.247406 796.372681 L 359.24823 798.24762 L 343.97757 798.254333 C 344.144928 799.785461 344.69751 800.931091 345.645782 801.69104 C 346.588806 802.456299 347.917053 802.835938 349.625458 802.835144 C 351.000397 802.834534 352.401367 802.635986 353.833496 802.229126 C 355.27594 801.811829 356.754913 801.196594 358.270111 800.373047 L 358.272308 805.39386 C 356.731018 805.977905 355.189453 806.416016 353.647827 806.708374 C 352.106384 807.011169 350.564697 807.168091 349.02298 807.168762 C 345.325104 807.17041 342.449615 806.234192 340.396667 804.360046 C 338.354248 802.486023 337.332153 799.856201 337.330658 796.465515 C 337.329193 793.132202 338.333282 790.517212 340.347992 788.610046 C 342.357544 786.692505 345.122742 785.733032 348.638489 785.731445 C 351.846741 785.730042 354.414917 786.702881 356.348022 788.644775 C 358.27594 790.576172 359.24588 793.15387 359.247284 796.372681 Z M 352.538208 794.208984 C 352.537659 792.974609 352.172638 791.979919 351.453552 791.230225 C 350.729248 790.470154 349.786377 790.085144 348.61972 790.085693 C 347.354065 790.086182 346.328156 790.440796 345.536865 791.149536 C 344.745575 791.858215 344.25116 792.879272 344.05899 794.212708 Z"/>
            </g>
        </g>
        <g id="g73">
            <g id="g74">
                <path id="path47" fill="#000000" stroke="none" d="M 380.670166 786.863403 L 380.672516 792.175903 C 379.797241 791.566895 378.906403 791.114197 378.005219 790.822937 C 377.114471 790.531677 376.192535 790.38623 375.234222 790.386719 C 373.411285 790.387451 371.989716 790.924561 370.964172 791.992676 C 369.949005 793.050415 369.444489 794.534973 369.445313 796.451782 C 369.446167 798.358032 369.951996 799.842224 370.968109 800.909485 C 371.994568 801.966309 373.416595 802.49176 375.239532 802.490967 C 376.249969 802.490479 377.218719 802.344238 378.135223 802.052185 C 379.051788 801.749695 379.895325 801.296204 380.67627 800.696899 L 380.678619 806.030273 C 379.663147 806.405701 378.62677 806.68219 377.57486 806.86499 C 376.533234 807.058105 375.476044 807.157593 374.408295 807.15802 C 370.726044 807.159668 367.845306 806.218201 365.761169 804.328491 C 363.687408 802.44397 362.65506 799.819458 362.653564 796.454956 C 362.6521 793.080017 363.68219 790.44928 365.754211 788.557678 C 367.8367 786.671326 370.716614 785.722168 374.398865 785.720581 C 375.466553 785.720093 376.523956 785.818604 377.565674 786.010864 C 378.607361 786.192688 379.638794 786.478638 380.670166 786.863647 Z"/>
            </g>
        </g>
        <g id="g75">
            <g id="g76">
                <path id="path48" fill="#000000" stroke="none" d="M 393.437775 780.42041 L 393.440338 786.212158 L 400.169525 786.209229 L 400.17157 790.875854 L 393.442383 790.878845 L 393.446198 799.545471 C 393.446625 800.493408 393.634399 801.128723 394.009552 801.461914 C 394.384705 801.795044 395.12439 801.961426 396.238953 801.960938 L 399.59314 801.959473 L 399.595184 806.626099 L 394.01181 806.628601 C 391.428497 806.6297 389.594971 806.099243 388.511108 805.026855 C 387.437744 803.94397 386.905701 802.121338 386.904572 799.54834 L 386.900757 790.881714 L 383.67157 790.883118 L 383.669525 786.216431 L 386.898712 786.215027 L 386.896149 780.42334 Z"/>
            </g>
        </g>
    </g>
</svg>
