<svg xmlns="http://www.w3.org/2000/svg" viewBox="0 0 48 48"><g data-name="Layer 2"><path fill="#f4a261" stroke="#4d4d4d" stroke-linecap="round" stroke-linejoin="round" d="M36.06413,42.011l-2.34707.17095a44.12646,44.12646,0,0,1-.12675-5.02667l2.3527.05248A42.16411,42.16411,0,0,0,36.06413,42.011Z"/><path fill="#6c9552" stroke="#4d4d4d" stroke-linecap="round" stroke-linejoin="round" d="M39.614,37.81917c-3.8852-.04283-5.82782-.06421-9.713-.107a.79784.79784,0,0,1-.57862-1.17908,43.3764,43.3764,0,0,1,2.88647-5.16034.7786.7786,0,0,0-.43011-1.21038A.716.716,0,0,1,31.21849,29.4a.44731.44731,0,0,1,.00855-.12222.8854.8854,0,0,1,.12139-.32c.31338-.50947.473-.7609.79786-1.257.57359-.85951.869-1.279,1.47514-2.09668a.76815.76815,0,0,0-.331-1.20527l-.31357-.08211a.78272.78272,0,0,1-.29785-1.24484,43.17838,43.17838,0,0,1,6.30994-6.73368.65436.65436,0,0,1,1.10574.51176,38.04369,38.04369,0,0,0,.66064,8.51167.67973.67973,0,0,1-.84711.77l-.31356-.08211a.67993.67993,0,0,0-.83278.79185c.06769.33012.10295.49438.17625.82118.126.56188.19317.84039.3354,1.39219.028.11242.04222.16851.07091.28052.1075.41464.16352.62053.28,1.02929a.67921.67921,0,0,1-.75916.85593.67355.67355,0,0,0-.77.57141.88523.88523,0,0,0,.03418.33991c.38316,1.01934.58836,1.51839,1.02322,2.49348.41218.92132.62968,1.372,1.08508,2.25182A.66058.66058,0,0,1,39.614,37.81917Z"/><path fill="#f1faee" stroke="#4d4d4d" stroke-linecap="round" stroke-linejoin="round" d="M38.76184,26.84141c.06769.33012.10295.49438.17625.82118.126.56188.19317.84039.3354,1.39219.028.11242.04222.16851.07091.28052a5.63469,5.63469,0,0,0-.97369.22128c-1.82163.58965-2.48446,1.61136-3.38458,1.22824-.93972-.4-.71318-1.77694-1.54268-2.24622-.65712-.37175-1.467.16478-2.225.86138a.44731.44731,0,0,1,.00855-.12222.8854.8854,0,0,1,.12139-.32c.31338-.50947.473-.7609.79786-1.257.57359-.85951.869-1.279,1.47514-2.09668a.76815.76815,0,0,0-.331-1.20527l-.31357-.08211a.78272.78272,0,0,1-.29785-1.24484,43.17838,43.17838,0,0,1,6.30994-6.73368.65436.65436,0,0,1,1.10574.51176,38.04369,38.04369,0,0,0,.66064,8.51167.67973.67973,0,0,1-.84711.77l-.31356-.08211A.67993.67993,0,0,0,38.76184,26.84141Z"/><path fill="#f4a261" stroke="#4d4d4d" stroke-linecap="round" stroke-linejoin="round" d="M18.79076,40.97167l-2.24939.03794c-.029-1.72213-.01285-2.58218.0797-4.29517l2.24643.12137C18.77839,38.48526,18.7628,39.31342,18.79076,40.97167Z"/><path fill="#6c9552" stroke="#4d4d4d" stroke-linecap="round" stroke-linejoin="round" d="M23.29338,37.7288c-4.46688-.18711-6.70031-.2807-11.16718-.46785-.58969-.02471-.93524-.84066-.61776-1.47387a50.02771,50.02771,0,0,1,3.57721-6.20024.96591.96591,0,0,0-.4309-1.49474.882.882,0,0,1-.58262-1.09635,1.12686,1.12686,0,0,1,.15615-.38157c.39439-.60538.59523-.9038,1.00372-1.492.057-.08379.08556-.12562.14281-.20907.6601-.94081.99921-1.40005,1.69345-2.29556a.94855.94855,0,0,0-.28635-1.4872l-.35659-.11132a.82091.82091,0,0,1-.505-.90129,1.06019,1.06019,0,0,1,.25057-.61625c.10994-.13029.16507-.19518.27569-.32443a49.78029,49.78029,0,0,1,7.62206-7.58488.73923.73923,0,0,1,1.2387.6622,44.01287,44.01287,0,0,0-.00177,10.04092c.01183.11349.0179.17015.03034.28336a.84551.84551,0,0,1-.045.37263l-.00244.00744a.81592.81592,0,0,1-.98959.51828l-.35658-.11133a.67478.67478,0,0,0-.51135.0344.86726.86726,0,0,0-.50567.90974c.05274.39882.08093.59739.14087.99272.10676.69072.16564,1.03339.29392,1.7129.12045.64825.18555.96981.32508,1.60746a.82544.82544,0,0,1-.92739,1.01056.8057.8057,0,0,0-.91485.68543.92811.92811,0,0,0,.022.40326c.38351,1.25622.59327,1.87227,1.04538,3.07764.42657,1.13944.655,1.69766,1.13925,2.78914A.80775.80775,0,0,1,23.29338,37.7288Z"/><path fill="#f1faee" stroke="#4d4d4d" stroke-linecap="round" stroke-linejoin="round" d="M15.78189 31.48465c-.127.41582-.63436.232-1.32535.88149-.50939.47879-.42958.75954-.95829 1.2947-.3043.308-1.04259.95815-1.36107.69678-.39986-.32814.08453-1.94254.37391-2.64381a2.83269 2.83269 0 0 1 1.30844-1.73064 1.369 1.369 0 0 1 1.11415.06574C15.45483 30.33083 15.92274 31.02346 15.78189 31.48465zM25.29084 22.95134l-.00244.00744a.81592.81592 0 0 1-.98959.51828l-.35658-.11133c-.17829-.05566-1.39485-1.61139-1.55441-1.53362-.80707-.31965-.90018.95348-1.67385 1.18009-.897.26275-.74006 1.0475-1.91468 1.79446a3.39957 3.39957 0 0 1-2.83691.31469 5.16971 5.16971 0 0 1-.58757-.20819c.6601-.94081.99921-1.40005 1.69345-2.29556a.94855.94855 0 0 0-.28635-1.4872l-.35659-.11132a.82091.82091 0 0 1-.505-.90129c.18768-.33659.3554-.64936.52626-.94068a49.78029 49.78029 0 0 1 7.62206-7.58488.73923.73923 0 0 1 1.2387.6622 44.01287 44.01287 0 0 0-.00177 10.04092C25.30333 22.51017 25.2999 22.73208 25.29084 22.95134zM21.86481 30.7222c.38351 1.25622.59327 1.87227 1.04538 3.07764a1.50551 1.50551 0 0 1-.92508.6391 1.60367 1.60367 0 0 1-1.40176-.70376c-.30251-.4039-.18255-.58667-.48743-.98735-.43463-.57121-.85947-.43858-.98794-.77163-.30687-.79554 1.92652-2.103 1.72617-3.05995-.14733-.70376-1.47452-.49867-1.66188-1.30131-.19893-.85212 1.05626-2.28483 1.89534-2.15.27107.04357.63733.3719 1.39029.99295a3.65363 3.65363 0 0 0 .9021.55759c.12045.64825.18555.96981.32508 1.60746a.82544.82544 0 0 1-.92739 1.01056.8057.8057 0 0 0-.91485.68543A.92811.92811 0 0 0 21.86481 30.7222z"/><path fill="#f1faee" d="M47,40v6H1V40a21.00239,21.00239,0,0,1,3,0,28.58818,28.58818,0,0,1,5,1c3.77.74,4.3-1.22,9-1,2.54.12,2.39.69,6,1a38.41026,38.41026,0,0,0,6,0c3.83-.23,5.04-.69,8-1A43.42022,43.42022,0,0,1,47,40Z"/><path fill="none" stroke="#4d4d4d" stroke-linecap="round" stroke-linejoin="round" d="M1,40a20.27022,20.27022,0,0,1,3,0,28.80925,28.80925,0,0,1,5,1c3.77068.74094,4.2953-1.22186,9-1,2.53658.11961,2.39365.69064,6,1a38.12835,38.12835,0,0,0,6,0c3.83289-.23419,5.04348-.68555,8-1a43.48081,43.48081,0,0,1,9,0"/><path fill="#ccd7ed" d="M47,42.87V46H1V43.84c1.62-.56,3.43.12994,8,.16,4.43.03,5.43-.61,9,0,2.28.39,2.05.68,4,1,4.19.69,5.33-.65,11-1,5.22-.32,5.22.76,9,0C44.44,43.51,45.81,42.78,47,42.87Z"/><path fill="none" stroke="#4d4d4d" stroke-linecap="round" stroke-linejoin="round" d="M34.99993 11.43159A19.89084 19.89084 0 0 1 31.252 7.0001M21.62285 11.00009a32.87268 32.87268 0 0 1-1.35725-3M10.54755 33.00029A55.03532 55.03532 0 0 1 2.73971 21.0001M11.19007 15.00017A46.42492 46.42492 0 0 1 7.76244 4M13.259 19.0002q-.57241-.98228-1.098-1.99995M40 10.97122a15.72756 15.72756 0 0 1-4.92094-3.971"/><ellipse cx="5" cy="13.5" fill="#faf3dd" stroke="#4d4d4d" stroke-linecap="round" stroke-linejoin="round" rx="1" ry="1.5" transform="rotate(-33.69 5 13.5)"/><ellipse cx="14.336" cy="6.307" fill="#faf3dd" stroke="#4d4d4d" stroke-linecap="round" stroke-linejoin="round" rx="1" ry="1.5" transform="rotate(-33.69 14.336 6.307)"/><ellipse cx="32.336" cy="14.307" fill="#faf3dd" stroke="#4d4d4d" stroke-linecap="round" stroke-linejoin="round" rx="1" ry="1.5" transform="rotate(-33.69 32.336 14.307)"/><ellipse cx="41.336" cy="35.307" fill="#faf3dd" stroke="#4d4d4d" stroke-linecap="round" stroke-linejoin="round" rx="1" ry="1.5" transform="rotate(-33.69 41.336 35.307)"/></g></svg>