<svg xmlns="http://www.w3.org/2000/svg" viewBox="0 0 48 48"><g data-name="Layer 2"><polygon fill="#8b9cc4" points="46 24 46 41.06 6.59 41.06 6.59 34.84 13.48 30.18 19.67 26 20.38 26.44 23.96 28.63 24 28.65 31.88 21.14 33.66 21.53 35 21.82 35.09 21.78 38.31 20.11 43 21.55 44.31 22.62 46 24"/><path fill="#e5e5ed" d="M42.78571,26.905A27.762,27.762,0,0,0,39.25,28.73214c0,.21429.48214,2.83929.48214,2.83929L40.21429,32.67s.42857-2.43357.80357-2.65a18.94107,18.94107,0,0,0,1.875-2.25213Z"/><polygon fill="#e5e5ed" points="18.73 29.21 19.91 34.04 15.84 34.04 13.48 30.18 19.67 26 20.38 26.44 18.73 29.21"/><path fill="#e5e5ed" d="M33.66 21.53c-.84 1.58-1.84 3.51-1.91 3.67-.11.26-3.43 6.79-3.43 6.79s-4.68.6-5.13.68a17.67875 17.67875 0 0 0 .77-4.04l.04.02 7.88-7.51zM44.31 22.62a27.94058 27.94058 0 0 1-2.11 2.26c-.16 0-4.24 1.39-4.24 1.39l-.91 3.69-3.69.625V28.68l2.46-3.23s-.46-2.01-.73-3.67l3.22-1.67L43 21.55z"/><polyline fill="none" stroke="#4d4d4d" stroke-linecap="round" stroke-linejoin="round" points="6.593 34.841 19.67 26 24 28.652 31.884 21.143 35 21.82 38.312 20.115 43 21.548 46 24"/><path fill="#ffc171" stroke="#4d4d4d" stroke-linecap="round" stroke-linejoin="round" d="M19.54383,22.49747H8.21429a1,1,0,0,1-1-1V18.52232a1,1,0,0,1,1-1h11.3086a1,1,0,0,1,.56182.17274L22.37729,19.252a1,1,0,0,1-.03224,1.67553l-2.27164,1.4182A1,1,0,0,1,19.54383,22.49747Z"/><rect width="2.448" height="16.071" x="6.17" y="16.598" fill="#ffc171" stroke="#4d4d4d" stroke-linecap="round" stroke-linejoin="round" rx="1"/><path fill="#f1faee" d="M14.53082,35.74744c-.75378-2.15979-3.38159-3.7566-6.52063-3.7566a7.27751,7.27751,0,0,0-6.01135,2.7353L2,42.32208V46H46V37.264C37.80658,34.50464,26.75531,34.55029,14.53082,35.74744Z"/><path fill="none" stroke="#4d4d4d" stroke-linecap="round" stroke-linejoin="round" d="M46 37.26c-6.10682-2.05052-13.80932-2.54984-22.39858-2.17786M1.99886 34.72612a7.27745 7.27745 0 0 1 6.01133-2.73528c3.64142 0 6.60132 2.14679 6.73737 4.8313a17.3146 17.3146 0 0 1 4.29309-.52612c4.67468 0 8.57629 1.72113 9.52 4.01605a30.03517 30.03517 0 0 1 4.1983-.28015c4.83746 0 8.29719 1.02418 8.759 2.29016"/><path fill="none" stroke="#b8bded" stroke-linecap="round" stroke-linejoin="round" d="M6.59043,41.43189a7.061,7.061,0,0,1,4.20449-1.09,8.02706,8.02706,0,0,1,3.79866.81126"/></g></svg>