<?xml version="1.0" encoding="UTF-8"?>
<!-- Generated by Pixelmator Pro 3.4.3 -->
<svg width="64" height="80" viewBox="0 0 64 80" xmlns="http://www.w3.org/2000/svg">
    <g id="Group">
        <path id="Path" fill="#000000" stroke="none" d="M 29.450001 43.5 L 15.52 43.5 C 15.243857 43.5 15.02 43.723858 15.02 44 L 15.02 57.93 C 15.02 58.206142 15.243857 58.43 15.52 58.43 L 29.450001 58.43 C 29.726143 58.43 29.950001 58.206142 29.950001 57.93 L 29.950001 44 C 29.950001 43.723858 29.726143 43.5 29.450001 43.5 Z M 28.950001 57.43 L 16 57.43 L 16 44.5 L 28.950001 44.5 Z"/>
        <path id="path1" fill="#000000" stroke="none" d="M 26 55.049999 C 26.276142 55.049999 26.5 54.826141 26.5 54.549999 L 26.5 47.419998 C 26.5 47.143856 26.276142 46.919998 26 46.919998 C 25.723858 46.919998 25.5 47.143856 25.5 47.419998 L 25.5 54.549999 C 25.5 54.826141 25.723858 55.049999 26 55.049999 Z"/>
        <path id="path2" fill="#000000" stroke="none" d="M 19 55.049999 C 19.276142 55.049999 19.5 54.826141 19.5 54.549999 L 19.5 47.419998 C 19.5 47.143856 19.276142 46.919998 19 46.919998 C 18.723858 46.919998 18.5 47.143856 18.5 47.419998 L 18.5 54.549999 C 18.5 54.826141 18.723858 55.049999 19 55.049999 Z"/>
        <path id="path3" fill="#000000" stroke="none" d="M 48.48 43.5 L 34.549999 43.5 C 34.273857 43.5 34.049999 43.723858 34.049999 44 L 34.049999 57.93 C 34.049999 58.206142 34.273857 58.43 34.549999 58.43 L 48.48 58.43 C 48.756142 58.43 48.98 58.206142 48.98 57.93 L 48.98 44 C 48.98 43.723858 48.756142 43.5 48.48 43.5 Z M 48 57.43 L 35.049999 57.43 L 35.049999 44.5 L 48 44.5 Z"/>
        <path id="path4" fill="#000000" stroke="none" d="M 45 55.049999 C 45.276142 55.049999 45.5 54.826141 45.5 54.549999 L 45.5 47.419998 C 45.5 47.143856 45.276142 46.919998 45 46.919998 C 44.723858 46.919998 44.5 47.143856 44.5 47.419998 L 44.5 54.549999 C 44.5 54.826141 44.723858 55.049999 45 55.049999 Z"/>
        <path id="path5" fill="#000000" stroke="none" d="M 38 55.049999 C 38.276142 55.049999 38.5 54.826141 38.5 54.549999 L 38.5 47.419998 C 38.5 47.143856 38.276142 46.919998 38 46.919998 C 37.723858 46.919998 37.5 47.143856 37.5 47.419998 L 37.5 54.549999 C 37.5 54.826141 37.723858 55.049999 38 55.049999 Z"/>
        <path id="path6" fill="#000000" stroke="none" d="M 20.43 39 L 20.43 25 C 20.43 24.723858 20.206142 24.5 19.93 24.5 L 6 24.5 C 5.723857 24.5 5.5 24.723858 5.5 25 L 5.5 39 C 5.5 39.276142 5.723857 39.5 6 39.5 L 19.93 39.5 C 20.206142 39.5 20.43 39.276142 20.43 39 Z M 19.43 38.5 L 6.5 38.5 L 6.5 25.540001 L 19.43 25.540001 Z"/>
        <path id="path7" fill="#000000" stroke="none" d="M 16.49 36.09 C 16.766142 36.09 16.99 35.866142 16.99 35.59 L 16.99 28.459999 C 16.99 28.183857 16.766142 27.959999 16.49 27.959999 C 16.213858 27.959999 15.99 28.183857 15.99 28.459999 L 15.99 35.59 C 15.99 35.866142 16.213858 36.09 16.49 36.09 Z"/>
        <path id="path8" fill="#000000" stroke="none" d="M 9.43 36.09 C 9.706142 36.09 9.93 35.866142 9.93 35.59 L 9.93 28.459999 C 9.93 28.183857 9.706142 27.959999 9.43 27.959999 C 9.153857 27.959999 8.93 28.183857 8.93 28.459999 L 8.93 35.59 C 8.93 35.866142 9.153857 36.09 9.43 36.09 Z"/>
        <path id="path9" fill="#000000" stroke="none" d="M 25 24.540001 C 24.723858 24.540001 24.5 24.763855 24.5 25.040001 L 24.5 39 C 24.5 39.276142 24.723858 39.5 25 39.5 L 39 39.5 C 39.276142 39.5 39.5 39.276142 39.5 39 L 39.5 25 C 39.5 24.723858 39.276142 24.5 39 24.5 Z M 38.459999 38.459999 L 25.540001 38.459999 L 25.540001 25.540001 L 38.459999 25.540001 Z"/>
        <path id="path10" fill="#000000" stroke="none" d="M 35.529999 36.09 C 35.806141 36.09 36.029999 35.866142 36.029999 35.59 L 36.029999 28.459999 C 36.029999 28.183857 35.806141 27.959999 35.529999 27.959999 C 35.253857 27.959999 35.029999 28.183857 35.029999 28.459999 L 35.029999 35.59 C 35.029999 35.866142 35.253857 36.09 35.529999 36.09 Z"/>
        <path id="path11" fill="#000000" stroke="none" d="M 28.469999 36.09 C 28.746141 36.09 28.969999 35.866142 28.969999 35.59 L 28.969999 28.459999 C 28.969999 28.183857 28.746141 27.959999 28.469999 27.959999 C 28.193857 27.959999 27.969999 28.183857 27.969999 28.459999 L 27.969999 35.59 C 27.969999 35.866142 28.193857 36.09 28.469999 36.09 Z"/>
        <path id="path12" fill="#000000" stroke="none" d="M 58 24.540001 L 44.07 24.540001 C 43.793858 24.540001 43.57 24.763855 43.57 25.040001 L 43.57 39 C 43.57 39.276142 43.793858 39.5 44.07 39.5 L 58 39.5 C 58.276142 39.5 58.5 39.276142 58.5 39 L 58.5 25 C 58.479103 24.73959 58.261246 24.539162 58 24.540001 Z M 57.5 38.470001 L 44.57 38.470001 L 44.57 25.540001 L 57.5 25.540001 Z"/>
        <path id="path13" fill="#000000" stroke="none" d="M 54.57 36.09 C 54.846142 36.09 55.07 35.866142 55.07 35.59 L 55.07 28.459999 C 55.07 28.183857 54.846142 27.959999 54.57 27.959999 C 54.293858 27.959999 54.07 28.183857 54.07 28.459999 L 54.07 35.59 C 54.07 35.866142 54.293858 36.09 54.57 36.09 Z"/>
        <path id="path14" fill="#000000" stroke="none" d="M 47.509998 36.09 C 47.786144 36.09 48.009998 35.866142 48.009998 35.59 L 48.009998 28.459999 C 48.009998 28.183857 47.786144 27.959999 47.509998 27.959999 C 47.233856 27.959999 47.009998 28.183857 47.009998 28.459999 L 47.009998 35.59 C 47.009998 35.866142 47.233856 36.09 47.509998 36.09 Z"/>
        <path id="path15" fill="#000000" stroke="none" d="M 15.52 20.5 L 29.450001 20.5 C 29.726143 20.5 29.950001 20.276142 29.950001 20 L 29.950001 6.07 C 29.950001 5.793854 29.726143 5.57 29.450001 5.57 L 15.52 5.57 C 15.243857 5.57 15.02 5.793854 15.02 6.07 L 15.02 20 C 15.02 20.276142 15.243857 20.5 15.52 20.5 Z M 16 6.57 L 28.950001 6.57 L 28.950001 19.5 L 16 19.5 Z"/>
        <path id="path16" fill="#000000" stroke="none" d="M 26 9 C 25.723858 9 25.5 9.223862 25.5 9.5 L 25.5 16.629997 C 25.5 16.906143 25.723858 17.129997 26 17.129997 C 26.276142 17.129997 26.5 16.906143 26.5 16.629997 L 26.5 9.489998 C 26.494555 9.217773 26.272284 8.999947 26 9 Z"/>
        <path id="path17" fill="#000000" stroke="none" d="M 19 9 C 18.723858 9 18.5 9.223862 18.5 9.5 L 18.5 16.629997 C 18.5 16.906143 18.723858 17.129997 19 17.129997 C 19.276142 17.129997 19.5 16.906143 19.5 16.629997 L 19.5 9.489998 C 19.494555 9.217773 19.272284 8.999947 19 9 Z"/>
        <path id="path18" fill="#000000" stroke="none" d="M 34.549999 20.5 L 48.48 20.5 C 48.616039 20.505447 48.748413 20.455181 48.846554 20.360817 C 48.944695 20.266449 49.000111 20.136147 49 20 L 49 6.07 C 49 5.793854 48.776142 5.57 48.5 5.57 L 34.549999 5.57 C 34.273857 5.57 34.049999 5.793854 34.049999 6.07 L 34.049999 20 C 34.049999 20.276142 34.273857 20.5 34.549999 20.5 Z M 35.049999 6.57 L 48 6.57 L 48 19.5 L 35.049999 19.5 Z"/>
        <path id="path19" fill="#000000" stroke="none" d="M 45 9 C 44.723858 9 44.5 9.223862 44.5 9.5 L 44.5 16.629997 C 44.5 16.906143 44.723858 17.129997 45 17.129997 C 45.276142 17.129997 45.5 16.906143 45.5 16.629997 L 45.5 9.489998 C 45.494553 9.217773 45.272285 8.999947 45 9 Z"/>
        <path id="path20" fill="#000000" stroke="none" d="M 38 9 C 37.723858 9 37.5 9.223862 37.5 9.5 L 37.5 16.629997 C 37.5 16.906143 37.723858 17.129997 38 17.129997 C 38.276142 17.129997 38.5 16.906143 38.5 16.629997 L 38.5 9.489998 C 38.494553 9.217773 38.272285 8.999947 38 9 Z"/>
    </g>
</svg>
