<?xml version="1.0" encoding="UTF-8"?>
<!-- Generated by Pixelmator Pro 3.4.3 -->
<svg width="100" height="125" viewBox="0 0 100 125" xmlns="http://www.w3.org/2000/svg">
    <g id="Group">
        <path id="Path" fill="#000000" stroke="none" d="M 26.653238 11.423424 C 26.299656 11.423424 25.960554 11.563889 25.710533 11.813911 C 25.460514 12.063927 25.320053 12.40303 25.320053 12.756615 L 25.320053 22.260757 C 25.320122 22.614319 25.460615 22.953377 25.710636 23.203362 L 34.595058 32.087784 L 34.595058 39.321358 C 34.595058 40.057655 35.191948 40.654541 35.928246 40.654541 C 36.664539 40.654541 37.261429 40.057655 37.261429 39.321358 L 37.261429 31.535767 C 37.26136 31.182205 37.120869 30.843155 36.87085 30.593163 L 27.986423 21.70874 L 27.986423 12.756615 C 27.986423 12.020317 27.389536 11.423431 26.653238 11.423424 Z"/>
        <path id="path1" fill="#000000" stroke="none" d="M 26.653238 2 C 23.331396 2 20.609644 4.721756 20.609644 8.043594 C 20.609644 11.36544 23.331396 14.087196 26.653238 14.087196 C 29.97508 14.087196 32.694229 11.36544 32.694229 8.043594 C 32.694229 4.721756 29.97508 2 26.653238 2 Z M 26.653238 4.666367 C 28.534069 4.666367 30.027861 6.162766 30.027861 8.043594 C 30.027861 9.924431 28.534069 11.420822 26.653238 11.420822 C 24.772408 11.420822 23.276011 9.924431 23.276011 8.043594 C 23.276011 6.162766 24.772408 4.666367 26.653238 4.666367 Z"/>
    </g>
    <g id="g1">
        <path id="path2" fill="#000000" stroke="none" d="M 73.876419 11.423424 C 73.140121 11.423431 72.543236 12.020317 72.543236 12.756615 L 72.543236 21.70874 L 63.656212 30.593163 C 63.406189 30.843155 63.265697 31.182205 63.265629 31.535767 L 63.265629 39.321358 C 63.265629 40.057655 63.862514 40.654541 64.598808 40.654541 C 65.335106 40.654541 65.931992 40.057655 65.931992 39.321358 L 65.931992 32.087784 L 74.819023 23.203362 C 75.069046 22.953377 75.209534 22.614319 75.209602 22.260757 L 75.209602 12.756615 C 75.209602 12.40303 75.069145 12.063927 74.819122 11.813911 C 74.569099 11.563889 74.230003 11.423424 73.876419 11.423424 Z"/>
        <path id="path3" fill="#000000" stroke="none" d="M 73.876419 2 C 70.554581 2 67.832825 4.721756 67.832825 8.043594 C 67.832825 11.36544 70.554581 14.087189 73.876419 14.087189 C 77.198265 14.087189 79.920013 11.36544 79.920013 8.043594 C 79.920013 4.721756 77.198265 2 73.876419 2 Z M 73.876419 4.666367 C 75.757248 4.666367 77.253647 6.162766 77.253647 8.043594 C 77.253647 9.924431 75.757248 11.420822 73.876419 11.420822 C 71.99559 11.420822 70.499191 9.924431 70.499191 8.043594 C 70.499191 6.162766 71.99559 4.666367 73.876419 4.666367 Z"/>
    </g>
    <path id="path4" fill="#000000" stroke="none" d="M 50.317795 15.206261 C 49.581497 15.206261 48.984612 15.803146 48.984612 16.539444 L 48.984612 32.727737 C 48.984612 33.464035 49.581497 34.060928 50.317795 34.060928 C 51.054092 34.060928 51.650982 33.464035 51.650982 32.727737 L 51.650982 16.539444 C 51.650982 15.803146 51.054092 15.206261 50.317795 15.206261 Z"/>
    <path id="path5" fill="#000000" stroke="none" d="M 50.317795 5.785439 C 46.995956 5.785439 44.2742 8.507195 44.2742 11.829033 C 44.2742 15.150879 46.995956 17.872635 50.317795 17.872627 C 53.639641 17.872627 56.361393 15.150879 56.361393 11.829033 C 56.361393 8.507195 53.639641 5.785439 50.317795 5.785439 Z M 50.317795 8.451805 C 52.198627 8.451805 53.695023 9.948204 53.695023 11.829033 C 53.695023 13.709862 52.198627 15.206261 50.317795 15.206261 C 48.436966 15.206261 46.940571 13.709862 46.940571 11.829033 C 46.940571 9.948204 48.436966 8.451805 50.317795 8.451805 Z"/>
    <path id="path6" fill="#000000" stroke="none" d="M 49.678341 31.57016 L 21.990061 47.552979 C 21.528278 47.819626 21.244051 48.312576 21.244642 48.845818 L 21.244642 80.820213 C 21.245096 81.352409 21.529182 81.844009 21.990061 82.11013 L 49.678341 98.092949 C 50.139618 98.359238 50.707905 98.359238 51.169182 98.092949 L 78.85746 82.11013 C 79.318336 81.844009 79.602425 81.352409 79.602882 80.820213 L 79.602882 48.845818 C 79.60347 48.312576 79.319244 47.819626 78.85746 47.552979 L 51.169182 31.57016 C 50.707905 31.303879 50.139618 31.303879 49.678341 31.57016 Z M 50.423759 34.583855 L 76.621208 49.704788 L 76.621208 79.958313 L 50.423759 95.079254 L 24.226316 79.958313 L 24.226316 49.704788 Z"/>
    <path id="path7" fill="#000000" stroke="none" d="M 49.675362 31.567245 L 21.987228 47.547165 C 21.525772 47.813461 21.241482 48.305756 21.241482 48.838547 C 21.241482 49.371323 21.525772 49.863617 21.987228 50.129921 L 49.672527 66.11274 C 50.133804 66.379028 50.702091 66.379028 51.163364 66.11274 L 78.860291 50.129921 C 79.321747 49.863617 79.606041 49.371323 79.606041 48.838547 C 79.606041 48.305756 79.321747 47.813461 78.860291 47.547165 L 51.163364 31.567245 C 50.702812 31.302055 50.135914 31.302055 49.675362 31.567245 Z M 50.42078 34.578041 L 75.133202 48.837082 L 50.42078 63.101952 L 25.714321 48.839989 Z"/>
    <path id="path8" fill="#000000" stroke="none" d="M 50.417946 63.331989 C 49.594582 63.331989 48.927109 63.999458 48.927109 64.822823 L 48.927109 95.57135 C 48.927109 95.966743 49.084179 96.345947 49.363766 96.625534 C 49.643353 96.905121 50.022552 97.062187 50.417946 97.062187 C 51.241314 97.062187 51.908783 96.394714 51.908783 95.57135 L 51.908783 64.822823 C 51.908783 63.999458 51.241314 63.331989 50.417946 63.331989 Z"/>
</svg>
