<?xml version="1.0" encoding="UTF-8"?>
<!-- Generated by Pixelmator Pro 3.4.3 -->
<svg width="128" height="160" viewBox="0 0 128 160" xmlns="http://www.w3.org/2000/svg">
    <path id="Path" fill="#000000" stroke="none" d="M 110 76 C 108.895432 76 108 76.895432 108 78 L 108 100 C 108 104.418282 104.418282 108 100 108 L 28 108 C 23.581722 108 20 104.418282 20 100 L 20 78 C 20 76.895432 19.10457 76 18 76 C 16.89543 76 16 76.895432 16 78 L 16 100 C 16 106.627419 21.372583 112 28 112 L 100 112 C 106.627419 112 112 106.627419 112 100 L 112 78 C 112 76.895432 111.104568 76 110 76 Z"/>
    <path id="path1" fill="#000000" stroke="none" d="M 30.190001 96 L 97.790001 96 C 98.894569 96 99.790001 95.104568 99.790001 94 C 99.790001 92.895432 98.894569 92 97.790001 92 L 30.190001 92 C 29.08543 92 28.190001 92.895432 28.190001 94 C 28.190001 95.104568 29.08543 96 30.190001 96 Z"/>
    <path id="path2" fill="#000000" stroke="none" d="M 30.190001 80 L 97.790001 80 C 98.894569 80 99.790001 79.104568 99.790001 78 C 99.790001 76.895432 98.894569 76 97.790001 76 L 30.190001 76 C 29.08543 76 28.190001 76.895432 28.190001 78 C 28.190001 79.104568 29.08543 80 30.190001 80 Z"/>
    <path id="path3" fill="#000000" stroke="none" d="M 30.190001 64 L 97.790001 64 C 98.894569 64 99.790001 63.104568 99.790001 62 C 99.790001 60.895432 98.894569 60 97.790001 60 L 30.190001 60 C 29.08543 60 28.190001 60.895432 28.190001 62 C 28.190001 63.104568 29.08543 64 30.190001 64 Z"/>
    <path id="path4" fill="#000000" stroke="none" d="M 30.4 42.770004 L 97 53.18 L 97.309998 53.18 C 98.414566 53.26561 99.379395 52.439575 99.464996 51.334999 C 99.550606 50.230431 98.724571 49.26561 97.620003 49.18 L 31 38.82 C 29.89543 38.65155 28.863447 39.410431 28.695 40.514999 C 28.526552 41.619568 29.285431 42.65155 30.389999 42.82 Z"/>
    <path id="path5" fill="#000000" stroke="none" d="M 33.869999 21.639999 L 97.389999 42.160004 C 97.586334 42.227127 97.792511 42.260925 98 42.259995 C 98.97979 42.252975 99.810219 41.537155 99.961632 40.569115 C 100.113045 39.601074 99.540848 38.665871 98.610001 38.360001 L 35.099998 17.839996 C 34.408943 17.574097 33.627518 17.711746 33.068924 18.197784 C 32.510326 18.683838 32.26598 19.438736 32.433815 20.159912 C 32.60165 20.881088 33.154198 21.450531 33.869999 21.639999 Z"/>
</svg>
