<?xml version="1.0" encoding="UTF-8"?>
<!-- Generated by Pixelmator Pro 3.4.3 -->
<svg width="64" height="80" viewBox="0 0 64 80" xmlns="http://www.w3.org/2000/svg">
    <g id="Group">
        <path id="Path" fill="#000000" stroke="none" d="M 52.400002 30 L 40.700001 25.400002 C 41.099998 24.400002 41.200001 23.400002 41.200001 22.299999 C 41.200001 19.099998 39.599998 16.400002 37.200001 14.699997 C 37.599998 13.800003 38.700001 12 42.099998 10.599998 C 42.599998 10.400002 42.900002 9.800003 42.700001 9.300003 C 42.5 8.800003 41.900002 8.5 41.400002 8.699997 C 37.599998 10.199997 36 12.400002 35.400002 13.699997 C 34.299999 13.300003 33.200001 13 32 13 C 30.799999 13 29.6 13.199997 28.6 13.699997 C 28 12.400002 26.5 10.199997 22.6 8.699997 C 22.1 8.5 21.5 8.699997 21.299999 9.300003 C 21.1 9.900002 21.299999 10.400002 21.9 10.599998 C 25.299999 12 26.5 13.800003 26.9 14.699997 C 24.5 16.400002 22.9 19.099998 22.9 22.299999 C 22.9 23.400002 23.1 24.400002 23.4 25.400002 L 11.6 30 C 8.9 31 7 33.299999 6.4 36.200001 C 5.8 39 6.7 41.900002 8.7 44 C 10.3 45.599998 12.5 46.5 14.7 46.5 C 14.7 46.5 14.7 46.5 14.7 46.5 C 17.799999 46.5 20.5 44.900002 22.1 42.299999 L 22.799999 41.200001 C 23.4 49.400002 27.299999 55.5 32.099998 55.5 C 36.900002 55.5 40.799999 49.400002 41.400002 41.200001 L 42.099998 42.299999 C 43.599998 44.900002 46.400002 46.5 49.5 46.5 C 51.799999 46.5 53.900002 45.599998 55.5 44 C 57.5 42 58.400002 39.099998 57.799999 36.200001 C 57 33.299999 55.099998 31 52.400002 30 Z M 24.799999 22.299999 C 24.799999 18.299999 28 15.099998 32 15.099998 C 36 15.099998 39.200001 18.299999 39.200001 22.299999 C 39.200001 23.099998 39.099998 23.900002 38.799999 24.700001 L 35.799999 23.5 C 35.799999 23.5 35.799999 23.5 35.799999 23.5 L 32.400002 22.200001 C 32.400002 22.200001 32.400002 22.200001 32.299999 22.200001 C 32.200001 22.200001 32.200001 22.200001 32.099998 22.200001 C 32.099998 22.200001 32 22.200001 32 22.200001 C 32 22.200001 31.9 22.200001 31.9 22.200001 C 31.799999 22.200001 31.799999 22.200001 31.700001 22.200001 C 31.700001 22.200001 31.700001 22.200001 31.6 22.200001 L 25.200001 24.700001 C 24.9 23.900002 24.799999 23.099998 24.799999 22.299999 Z M 38.400002 45.900002 L 25.6 45.900002 C 25.1 44.200001 24.799999 42.299999 24.6 40.299999 L 39.299999 40.299999 C 39.299999 42.299999 38.900002 44.200001 38.400002 45.900002 Z M 39.400002 37.799999 C 39.400002 38 39.400002 38.200001 39.400002 38.299999 L 24.6 38.299999 C 24.6 38.099998 24.6 37.900002 24.6 37.799999 L 27.6 32.700001 L 36.5 32.700001 L 39.400002 37.799999 Z M 28.700001 30.700001 L 32 25.099998 L 35.299999 30.700001 L 28.700001 30.700001 Z M 20.299999 41.200001 C 19.1 43.200001 17 44.400002 14.7 44.400002 L 14.7 44.400002 C 13 44.400002 11.3 43.700001 10.1 42.5 C 8.5 40.900002 7.9 38.700001 8.4 36.599998 C 8.9 34.400002 10.4 32.700001 12.4 31.900002 L 29 25.400002 C 29 25.400002 29 25.400002 29 25.400002 L 29.700001 25.099998 L 20.299999 41.200001 Z M 32 53.299999 C 29.700001 53.299999 27.700001 51.200001 26.299999 47.900002 L 37.700001 47.900002 C 36.299999 51.200001 34.299999 53.299999 32 53.299999 Z M 53.900002 42.5 C 52.700001 43.700001 51 44.400002 49.299999 44.400002 C 47 44.400002 44.900002 43.200001 43.700001 41.200001 L 34.299999 25.099998 L 35 25.400002 C 35 25.400002 35 25.400002 35 25.400002 L 51.700001 31.900002 C 53.799999 32.700001 55.299999 34.5 55.700001 36.599998 C 56.099998 38.700001 55.5 40.900002 53.900002 42.5 Z"/>
    </g>
</svg>
