<?xml version="1.0" encoding="UTF-8"?>
<!-- Generated by Pixelmator Pro 3.4.3 -->
<svg width="100" height="125" viewBox="0 0 100 125" xmlns="http://www.w3.org/2000/svg">
    <g id="Group">
        <path id="Path" fill="#000000" stroke="none" d="M 76.101997 33.923996 C 76.101997 33.923996 60.610001 48.487999 57.264 51.516998 C 61.203999 53.792999 60.546001 57.468002 59.778 59.719002 C 59.485001 60.576004 60.445999 61.311001 61.181 60.780998 C 68.116997 55.774002 81.420998 42.543999 84.832001 34.662003 C 85.570999 31.955002 84.597 28.757004 82.873001 27.279999 C 81.149002 25.803001 77.209999 24.82 77.209999 24.82 L 76.101997 33.923996 Z"/>
        <path id="path1" fill="#000000" stroke="none" d="M 81.150002 14.810997 C 80.116997 14.810997 79.121002 14.969002 78.184998 15.260002 L 77.203003 24.023003 C 78.070999 24.319 82.022003 25.251999 83.739998 26.723999 C 85.139 27.923004 86.153 30.428001 86.373001 32.770004 C 89.151001 31.052002 91 28.004997 91 24.530998 C 91 19.163002 86.589996 14.810997 81.150002 14.810997 Z"/>
        <path id="path2" fill="#000000" stroke="none" d="M 24.801001 41.298996 L 30.783001 57.623001 L 44.213001 61.07 L 39.287998 44.830002 Z"/>
        <path id="path3" fill="#000000" stroke="none" d="M 9 37.449005 L 17.372 54.181 L 29.046 57.177002 L 23.073 40.877998 L 9 37.449005"/>
        <path id="path4" fill="#000000" stroke="none" d="M 49.876999 71.157997 C 49.876999 71.157997 42.490002 70.912003 39.780998 67.221001 C 35.595001 72.389 28.945999 78.540001 28.945999 78.540001 C 28.945999 78.540001 35.102001 79.524002 36.333 85.183998 C 42.981998 80.754997 49.876999 71.157997 49.876999 71.157997 Z"/>
        <path id="path5" fill="#000000" stroke="none" d="M 58.249001 82.476997 C 58.249001 82.476997 55.786999 88.627998 60.958 88.382004 C 66.128998 88.136002 65.143997 85.429001 68.098999 85.675003 C 71.054001 85.920998 77.195 83.952003 77.933998 79.030998 C 78.672997 74.110001 71.792999 76.817001 71.792999 76.817001 C 71.792999 76.817001 69.699997 80.262001 68.469002 81.491997 C 67.237999 82.722 60.712002 84.938004 58.249001 82.476997 Z"/>
        <path id="path6" fill="#000000" stroke="none" d="M 27.961 79.445 C 31.107 78.015999 34.362999 82.398003 34.117001 84.120003 C 33.959999 85.214996 32.709999 87.105003 31.819 88.336998 C 31.308001 89.042999 31.162001 90.026001 32.886002 88.303001 C 34.610001 86.581001 35.786999 86.262001 36.245998 86.837997 C 37.251999 88.099998 36.287998 89.591003 34.212002 91.114998 C 32.437 92.417999 30.177999 93.717003 28.700001 93.471001 C 27.92 93.341003 26.659 92.457001 25.643 91.651001 C 24.613001 90.834 24.113001 89.522003 24.349001 88.228996 C 24.875999 85.337997 26.051001 80.311996 27.961 79.445 Z"/>
        <path id="path7" fill="#000000" stroke="none" d="M 70.561996 54.673004 C 70.561996 54.673004 66.528 58.453003 62.041 62.145 C 60.169998 63.683998 58.773998 63.088001 58.740002 61.595001 C 56.098999 63.354 49.808998 63.351002 49.387001 59.395996 L 45.199001 62.792999 L 35.841999 60.085999 C 35.841999 60.085999 36.088001 63.039001 38.304001 64.761002 C 40.52 66.483002 44.459999 69.681999 52.34 69.681999 C 60.220001 69.681999 67.361 67.467003 67.361 68.697998 C 67.361 70.174004 60.466 70.419998 60.466 70.419998 L 57.019001 78.540001 C 57.019001 78.540001 56.526001 81.247002 60.466 81.985001 C 64.405998 82.723 68.099998 80.016998 68.099998 80.016998 C 68.099998 80.016998 74.749001 71.651001 76.225998 64.761002 C 77.703003 57.871002 70.561996 54.673004 70.561996 54.673004 Z"/>
        <path id="path8" fill="#000000" stroke="none" d="M 58.790001 59.716995 C 58.014 60.686996 52.577999 63.574001 50.597 59.175995 C 51.582001 57.884003 56.549999 53.313995 56.549999 53.313995 C 58.355 53.313995 60.266998 57.871002 58.790001 59.716995 Z"/>
        <path id="path9" fill="#000000" stroke="none" d="M 43.396999 22.141998 L 58.452999 8.701996 L 44.952 6.691002 L 30.035 19.267998 Z"/>
        <path id="path10" fill="#000000" stroke="none" d="M 60.354 8.985001 L 45.183998 22.527 L 59.970001 25.707001 L 76.348 11.366997 Z"/>
        <path id="path11" fill="#000000" stroke="none" d="M 9.492 36.587006 L 23.541 39.867004 L 42.033001 23.359001 L 28.608 20.471001 L 9.492 36.587006"/>
        <path id="path12" fill="#000000" stroke="none" d="M 43.82 23.744003 L 25.299 40.277 L 39.535 43.599998 L 58.584999 26.919998 Z"/>
        <g id="g1">
            <path id="path13" fill="#000000" stroke="none" d="M 61.402 26.188995 L 63.641998 44.098999 L 74.994003 33.512001 L 77.456001 11.859001 Z"/>
            <path id="path14" fill="#000000" stroke="none" d="M 60.063 27.385002 L 40.52 44.830002 L 45.444 61.07 L 62.308998 45.341995 Z"/>
        </g>
    </g>
</svg>
