<?xml version="1.0" encoding="UTF-8"?>
<!-- Generated by Pixelmator Pro 3.4.3 -->
<svg width="66" height="82" viewBox="0 0 66 82" xmlns="http://www.w3.org/2000/svg">
    <path id="Path" fill="#000000" stroke="none" d="M 34.150002 29.099998 C 37.619999 29.099998 40.450001 26.279999 40.450001 22.809998 C 40.450001 19.34 37.619999 16.520004 34.150002 16.520004 C 30.68 16.520004 27.860001 19.34 27.860001 22.809998 C 27.860001 26.279999 30.68 29.099998 34.150002 29.099998 Z M 34.150002 18.02 C 36.799999 18.02 38.950001 20.169998 38.950001 22.809998 C 38.950001 25.450001 36.799999 27.599998 34.150002 27.599998 C 31.51 27.599998 29.360001 25.450001 29.360001 22.809998 C 29.360001 20.169998 31.51 18.02 34.150002 18.02 Z"/>
    <path id="path1" fill="#000000" stroke="none" d="M 15.19 38.549999 L 21.73 38.549999 C 21.799999 40.630001 23.5 42.310001 25.6 42.310001 L 26.040001 42.310001 L 28.049999 45.48 C 28.620001 46.369999 29.59 46.91 30.639999 46.91 L 36.970001 46.91 C 38.029999 46.91 39 46.380001 39.560001 45.48 L 41.57 42.310001 L 42.009998 42.310001 C 44.110001 42.310001 45.810001 40.630001 45.880001 38.549999 L 52.419998 38.549999 C 53.990002 38.549999 55.259998 37.279999 55.259998 35.709999 L 55.259998 33.490002 C 55.259998 31.169998 54.209999 29.010002 52.389999 27.57 L 45.889999 22.450001 L 45.889999 18.510002 C 45.889999 16.300003 45.48 14.160004 44.669998 12.169998 C 44.669998 12.169998 44.669998 12.169998 44.669998 12.169998 C 44.669998 12.169998 44.669998 12.160004 44.669998 12.160004 C 44.669998 12.150002 44.669998 12.150002 44.66 12.139999 C 44.66 12.139999 44.66 12.139999 44.66 12.129997 C 44.580002 11.900002 44.48 11.669998 44.369999 11.449997 C 44.349998 11.419998 44.330002 11.400002 44.310001 11.370003 C 43.349998 9.229996 42.029999 7.339996 40.330002 5.769997 L 35.709999 1.5 C 34.650002 0.510002 32.970001 0.5 31.9 1.5 L 27.290001 5.769997 C 25.41 7.5 23.969999 9.610001 23 12.040001 C 22.98 12.080002 22.950001 12.099998 22.93 12.139999 C 22.120001 14.160004 21.719999 16.300003 21.719999 18.5 L 21.719999 22.450001 L 15.22 27.57 C 13.4 29.010002 12.35 31.16 12.35 33.490002 L 12.35 35.709999 C 12.35 37.27 13.63 38.549999 15.19 38.549999 Z M 43.439999 13.160004 C 44.07 14.849998 44.400002 16.639999 44.400002 18.5 L 44.400002 35.619999 L 23.219999 35.619999 L 23.219999 18.5 C 23.219999 16.660004 23.549999 14.870003 24.17 13.169998 L 43.439999 13.169998 Z M 38.299999 44.669998 C 38.009998 45.130001 37.509998 45.400002 36.970001 45.400002 L 30.639999 45.400002 C 30.1 45.400002 29.6 45.130001 29.309999 44.669998 L 27.809999 42.299999 L 39.799999 42.299999 L 38.299999 44.669998 Z M 44.400002 38.419998 C 44.400002 39.73 43.330002 40.799999 42.02 40.799999 L 41.169998 40.799999 L 26.450001 40.799999 L 25.6 40.799999 C 24.280001 40.799999 23.219999 39.73 23.219999 38.419998 L 23.219999 37.119999 L 44.400002 37.119999 L 44.400002 38.419998 Z M 51.470001 28.75 C 52.93 29.900002 53.77 31.630001 53.77 33.490002 L 53.77 35.709999 C 53.77 36.450001 53.169998 37.049999 52.43 37.049999 L 45.900002 37.049999 L 45.900002 36.389999 C 45.900002 36.380001 45.900002 36.380001 45.900002 36.369999 L 45.900002 24.360001 L 51.470001 28.75 Z M 28.299999 6.870003 L 32.91 2.599998 C 33.41 2.139999 34.189999 2.139999 34.689999 2.599998 L 39.310001 6.870003 C 40.779999 8.229996 41.959999 9.839996 42.830002 11.669998 L 24.790001 11.669998 C 25.66 9.830002 26.84 8.229996 28.299999 6.870003 Z M 13.85 33.490002 C 13.85 31.630001 14.69 29.900002 16.15 28.75 L 21.719999 24.360001 L 21.719999 36.369999 C 21.719999 36.380001 21.719999 36.380001 21.719999 36.389999 L 21.719999 37.049999 L 15.19 37.049999 C 14.45 37.049999 13.85 36.450001 13.85 35.709999 L 13.85 33.490002 Z"/>
    <path id="path2" fill="#000000" stroke="none" d="M 58.209999 62.75 L 54.52 62.75 C 54.16 59.900002 51.779999 57.669998 48.869999 57.549999 C 48.5 54.23 45.669998 51.650002 42.25 51.650002 C 39.27 51.650002 36.709999 53.619999 35.880001 56.380001 C 34.119999 55.450001 31.889999 55.380001 30.059999 56.209999 C 29.18 53.509998 26.66 51.650002 23.73 51.650002 C 20.32 51.650002 17.51 54.23 17.129999 57.549999 C 14.21 57.669998 11.83 59.900002 11.47 62.75 L 7.79 62.75 C 7.38 62.75 7.04 63.09 7.04 63.5 C 7.04 63.910004 7.38 64.25 7.79 64.25 L 12.18 64.25 L 53.84 64.25 L 58.23 64.25 C 58.639999 64.25 58.98 63.910004 58.98 63.5 C 58.98 63.09 58.630001 62.75 58.209999 62.75 Z M 12.99 62.75 C 13.36 60.57 15.31 58.970001 17.629999 59.060001 C 18.639999 59.119999 19.610001 59.5 20.370001 60.18 C 20.51 60.310001 20.690001 60.369999 20.870001 60.369999 C 21.08 60.369999 21.280001 60.290001 21.43 60.119999 C 21.709999 59.810001 21.68 59.34 21.370001 59.060001 C 20.6 58.360001 19.66 57.900002 18.65 57.68 C 18.950001 55.130001 21.1 53.130001 23.74 53.130001 C 26.25 53.130001 28.370001 54.900002 28.809999 57.349998 C 28.860001 57.650002 28.9 57.959999 28.9 58.279999 C 28.9 58.900002 28.790001 59.5 28.58 60.080002 C 28.440001 60.470001 28.629999 60.900002 29.02 61.040001 C 29.110001 61.07 29.190001 61.09 29.280001 61.09 C 29.58 61.09 29.870001 60.900002 29.98 60.599998 C 30.26 59.860001 30.4 59.080002 30.4 58.279999 C 30.4 58.099998 30.379999 57.919998 30.370001 57.740002 C 32.009998 56.860001 34.080002 56.950001 35.630001 57.970001 C 35.619999 58.080002 35.610001 58.18 35.610001 58.290001 C 35.610001 58.91 35.689999 59.529999 35.860001 60.119999 C 35.950001 60.450001 36.25 60.66 36.580002 60.66 C 36.650002 60.66 36.720001 60.650002 36.790001 60.630001 C 37.189999 60.52 37.419998 60.099998 37.310001 59.700001 C 37.18 59.240002 37.110001 58.77 37.110001 58.279999 C 37.110001 58.07 37.130001 57.869999 37.150002 57.66 C 37.150002 57.66 37.150002 57.66 37.150002 57.66 C 37.450001 55.080002 39.639999 53.130001 42.259998 53.130001 C 44.889999 53.130001 47.049999 55.110001 47.360001 57.68 C 46.369999 57.889999 45.450001 58.34 44.68 59.02 C 44.369999 59.290001 44.34 59.77 44.610001 60.080002 C 44.759998 60.25 44.959999 60.330002 45.169998 60.330002 C 45.349998 60.330002 45.52 60.27 45.669998 60.139999 C 46.389999 59.5 47.279999 59.119999 48.240002 59.040001 C 48.240002 59.040001 48.240002 59.040001 48.25 59.040001 C 48.259998 59.040001 48.259998 59.040001 48.27 59.040001 C 50.59 58.860001 52.66 60.509998 53.040001 62.73 L 12.99 62.73 Z"/>
    <path id="path3" fill="#000000" stroke="none" d="M 33.349998 48.740002 L 33.349998 51.93 C 33.349998 52.34 33.689999 52.68 34.099998 52.68 C 34.509998 52.68 34.849998 52.34 34.849998 51.93 L 34.849998 48.740002 C 34.849998 48.330002 34.509998 47.990002 34.099998 47.990002 C 33.689999 47.990002 33.349998 48.32 33.349998 48.740002 Z"/>
    <path id="path4" fill="#000000" stroke="none" d="M 36.57 49.459999 L 36.57 51.209999 C 36.57 51.619999 36.91 51.959999 37.32 51.959999 C 37.73 51.959999 38.07 51.619999 38.07 51.209999 L 38.07 49.459999 C 38.07 49.049999 37.73 48.709999 37.32 48.709999 C 36.91 48.709999 36.57 49.040001 36.57 49.459999 Z"/>
    <path id="path5" fill="#000000" stroke="none" d="M 30.139999 49.75 L 30.139999 50.900002 C 30.139999 51.310001 30.48 51.650002 30.889999 51.650002 C 31.299999 51.650002 31.639999 51.310001 31.639999 50.900002 L 31.639999 49.75 C 31.639999 49.34 31.299999 49 30.889999 49 C 30.48 49 30.139999 49.34 30.139999 49.75 Z"/>
</svg>
