<?xml version="1.0" encoding="UTF-8"?>
<!-- Generated by Pixelmator Pro 3.4.3 -->
<svg width="64" height="80" viewBox="0 0 64 80" xmlns="http://www.w3.org/2000/svg">
    <g id="Group">
        <path id="Path" fill="#000000" stroke="none" d="M 60 31 L 31.5 31 C 30.986609 27.251095 27.783894 24.457085 24 24.457085 C 20.216106 24.457085 17.013391 27.251095 16.5 31 L 4 31 C 3.447715 31 3 31.447716 3 32 C 3 32.552284 3.447715 33 4 33 L 16.5 33 C 17.013391 36.748905 20.216106 39.542915 24 39.542915 C 27.783894 39.542915 30.986609 36.748905 31.5 33 L 60 33 C 60.552284 33 61 32.552284 61 32 C 61 31.447716 60.552284 31 60 31 Z M 29.57 32 C 29.57 35.076225 27.076225 37.57 24 37.57 C 20.923775 37.57 18.43 35.076225 18.43 32 L 18.43 32 C 18.43 28.923775 20.923775 26.43 24 26.43 C 27.076225 26.43 29.57 28.923775 29.57 32 L 29.57 32 Z"/>
        <path id="path1" fill="#000000" stroke="none" d="M 4 11.57 L 36.59 11.57 C 37.10339 15.318909 40.306107 18.112915 44.09 18.112915 C 47.873894 18.112915 51.076607 15.318909 51.59 11.57 L 60 11.57 C 60.552284 11.57 61 11.122284 61 10.57 C 61 10.017715 60.552284 9.57 60 9.57 L 51.59 9.57 C 51.076607 5.821098 47.873894 3.027084 44.09 3.027084 C 40.306107 3.027084 37.10339 5.821098 36.59 9.57 L 4 9.57 C 3.447715 9.57 3 10.017715 3 10.57 C 3 11.122284 3.447715 11.57 4 11.57 Z M 38.52 10.57 C 38.52 7.493774 41.013775 5 44.09 5 C 47.166225 5 49.66 7.493774 49.66 10.57 L 49.66 10.57 C 49.66 13.646225 47.166225 16.139999 44.09 16.139999 C 41.013775 16.139999 38.52 13.646225 38.52 10.57 L 38.52 10.57 Z"/>
        <path id="path2" fill="#000000" stroke="none" d="M 60 52.43 L 51.59 52.43 C 51.076607 48.681095 47.873894 45.887085 44.09 45.887085 C 40.306107 45.887085 37.10339 48.681095 36.59 52.43 L 4 52.43 C 3.447715 52.43 3 52.877716 3 53.43 C 3 53.982285 3.447715 54.43 4 54.43 L 36.59 54.43 C 37.10339 58.178905 40.306107 60.972916 44.09 60.972916 C 47.873894 60.972916 51.076607 58.178905 51.59 54.43 L 60 54.43 C 60.552284 54.43 61 53.982285 61 53.43 C 61 52.877716 60.552284 52.43 60 52.43 Z M 49.66 53.43 C 49.66 56.506226 47.166225 59 44.09 59 C 41.013775 59 38.52 56.506226 38.52 53.43 L 38.52 53.43 C 38.52 50.353775 41.013775 47.860001 44.09 47.860001 C 47.166225 47.860001 49.66 50.353775 49.66 53.43 Z"/>
    </g>
</svg>
