<?xml version="1.0" encoding="UTF-8"?>
<!-- Generated by Pixelmator Pro 3.4.3 -->
<svg width="100" height="125" viewBox="0 0 100 125" xmlns="http://www.w3.org/2000/svg">
    <g id="Group">
        <path id="Path" fill="#000000" stroke="none" d="M 41.999996 6 L 41.999996 10 L 48.999996 10 L 48.999996 14.5 C 48.999996 15.348328 48.923996 15.891602 48.562496 16.4375 C 48.200699 16.983398 47.476498 17.59082 45.999996 18.25 C 45.989437 18.260132 45.979103 18.270447 45.968998 18.281006 C 42.486797 19.895996 40.000198 23.410583 40.000198 27.624817 C 40.000198 31.407593 41.962696 34.749207 44.906399 36.562317 L 19.718798 50 L 10.999997 50 C 10.447736 50.000061 10.000052 50.447754 9.999997 51 L 9.999997 93 C 10.000052 93.552246 10.447736 94 10.999997 94 L 89 94 C 89.552261 94 89.999947 93.552246 90 93 L 90 51 C 89.999947 50.447754 89.552261 50.000061 89 50 L 80.281197 50 L 55.093796 36.5625 C 58.037498 34.74939 59.999996 31.407776 59.999996 27.625 C 60.005096 27.264343 59.81562 26.928894 59.504124 26.747131 C 59.192627 26.565308 58.807369 26.565308 58.495869 26.747131 C 58.184372 26.928894 57.994896 27.264343 57.999996 27.625 C 57.999996 31.190857 55.901398 34.188599 52.937496 35.406189 L 50.468796 34.093811 C 50.258163 33.981384 50.014271 33.948059 49.781197 33.999817 C 49.694035 34.019775 49.609951 34.051392 49.531197 34.093811 L 47.062496 35.406189 C 44.098598 34.188599 41.999996 31.190918 41.999996 27.625 C 41.999996 24.196594 43.998299 21.398987 46.812496 20.093811 C 48.485996 19.34668 49.567997 18.544312 50.218796 17.5625 C 50.869297 16.580688 50.999996 15.509705 50.999996 14.5 L 50.999996 10 L 57.999996 10 L 57.999996 6 L 41.999996 6 Z M 47.249996 37.593811 C 48.125099 37.85437 49.043495 38 49.999996 38 C 50.956497 38 51.874897 37.85437 52.749996 37.593811 L 76 50 L 23.999996 50 L 47.249996 37.593811 Z M 11.999997 52 L 88 52 L 88 92 L 11.999997 92 L 11.999997 52 Z M 22.999996 58 L 22.999996 86 L 24.999996 86 L 24.999996 58 L 22.999996 58 Z M 35.999996 58 L 35.999996 86 L 37.999996 86 L 37.999996 58 L 35.999996 58 Z M 48.999996 58 L 48.999996 86 L 50.999996 86 L 50.999996 58 L 48.999996 58 Z M 61.999996 58 L 61.999996 86 L 63.999996 86 L 63.999996 58 L 61.999996 58 Z M 75 58 L 75 86 L 77 86 L 77 58 L 75 58 Z"/>
    </g>
</svg>
