<?xml version="1.0" encoding="UTF-8"?>
<!-- Generated by Pixelmator Pro 3.4.3 -->
<svg width="100" height="125" viewBox="0 0 100 125" xmlns="http://www.w3.org/2000/svg">
    <g id="Group">
        <g id="g1">
            <path id="Path" fill="#000000" stroke="none" d="M 64.449997 78.980003 L 62.279999 78.980003 L 59.540001 76.459999 L 53 76.459999 L 60 71.610001 L 60 67.589996 L 62.52 65.07 C 62.810001 64.779999 62.810001 64.300003 62.52 64.010002 C 62.23 63.720001 61.75 63.720001 61.459999 64.010002 L 58.5 66.970001 L 58.5 70.830002 L 52.869999 74.730003 L 52.869999 73.400002 C 52.869999 72.339996 52.27 71.419998 51.389999 70.959999 C 52.869999 70.389999 53.93 68.970001 53.93 67.290001 C 53.93 66.489998 53.689999 65.760002 53.279999 65.139999 L 55.759998 61.619999 L 55.759998 58.440002 C 55.759998 58.029999 55.419998 57.690002 55.009998 57.690002 C 54.599998 57.690002 54.259998 58.029999 54.259998 58.440002 L 54.259998 61.139999 L 52.209999 64.040001 C 51.580002 63.599998 50.810001 63.349998 49.98 63.349998 C 49.110001 63.349998 48.310001 63.639999 47.66 64.120003 L 45.560001 61.139999 L 45.560001 58.440002 C 45.560001 58.029999 45.220001 57.690002 44.810001 57.690002 C 44.400002 57.690002 44.060001 58.029999 44.060001 58.440002 L 44.060001 61.619999 L 46.619999 65.25 C 46.259998 65.849998 46.040001 66.540001 46.040001 67.290001 C 46.040001 68.970001 47.099998 70.389999 48.580002 70.959999 C 47.700001 71.43 47.099998 72.339996 47.099998 73.400002 L 47.099998 74.830002 L 41.330002 70.839996 L 41.330002 66.980003 L 38.369999 64.019997 C 38.080002 63.73 37.599998 63.73 37.310001 64.019997 C 37.02 64.309998 37.02 64.790001 37.310001 65.080002 L 39.830002 67.599998 L 39.830002 71.620003 L 46.830002 76.470001 L 40.290001 76.470001 L 37.549999 78.989998 L 35.380001 78.989998 C 34.970001 78.989998 34.630001 79.330002 34.630001 79.739998 C 34.630001 80.150002 34.970001 80.489998 35.380001 80.489998 L 38.130001 80.489998 L 40.869999 77.970001 L 47.509998 77.970001 L 39.830002 83.099998 L 39.830002 94.040001 L 37.310001 96.489998 C 37.009998 96.779999 37.009998 97.25 37.299999 97.550003 C 37.450001 97.699997 37.639999 97.779999 37.84 97.779999 C 38.029999 97.779999 38.220001 97.709999 38.360001 97.57 L 41.330002 94.68 L 41.330002 83.889999 L 47.860001 79.529999 C 47.919998 80.290001 48.369999 80.919998 49.02 81.25 C 46.639999 81.620003 44.810001 83.660004 44.810001 86.150002 L 44.810001 89.389999 C 44.810001 92.139999 47.040001 94.360001 49.779999 94.360001 L 50.169998 94.360001 C 52.919998 94.360001 55.139999 92.129997 55.139999 89.389999 L 55.139999 86.150002 C 55.139999 83.669998 53.310001 81.620003 50.93 81.25 C 51.549999 80.940002 51.990002 80.339996 52.080002 79.620003 L 58.48 83.889999 L 58.48 94.660004 L 61.450001 97.550003 C 61.599998 97.690002 61.779999 97.760002 61.970001 97.760002 C 62.169998 97.760002 62.360001 97.68 62.509998 97.529999 C 62.799999 97.230003 62.790001 96.760002 62.5 96.470001 L 60 94.029999 L 60 83.089996 L 52.32 77.959999 L 58.959999 77.959999 L 61.700001 80.480003 L 64.449997 80.480003 C 64.860001 80.480003 65.199997 80.139999 65.199997 79.730003 C 65.199997 79.32 64.870003 78.980003 64.449997 78.980003 Z M 35.52 21.020004 L 37.689999 21.020004 L 40.43 23.540001 L 46.970001 23.540001 L 39.970001 28.389999 L 39.970001 32.410004 L 37.450001 34.93 C 37.16 35.220001 37.16 35.699997 37.450001 35.990005 C 37.740002 36.279999 38.220001 36.279999 38.509998 35.990005 L 41.470001 33.029999 L 41.470001 29.169998 L 47.099998 25.270004 L 47.099998 26.599998 C 47.099998 27.660004 47.700001 28.580002 48.580002 29.040001 C 47.099998 29.610001 46.040001 31.029999 46.040001 32.709999 C 46.040001 33.509995 46.279999 34.240005 46.689999 34.860001 L 44.209999 38.380005 L 44.209999 41.559998 C 44.209999 41.970001 44.549999 42.309998 44.959999 42.309998 C 45.369999 42.309998 45.709999 41.970001 45.709999 41.559998 L 45.709999 38.860001 L 47.759998 35.959999 C 48.389999 36.400002 49.16 36.650002 49.990002 36.650002 C 50.860001 36.650002 51.66 36.360001 52.310001 35.880005 L 54.41 38.860001 L 54.41 41.559998 C 54.41 41.970001 54.75 42.309998 55.16 42.309998 C 55.57 42.309998 55.91 41.970001 55.91 41.559998 L 55.91 38.380005 L 53.349998 34.75 C 53.709999 34.150002 53.93 33.459999 53.93 32.709999 C 53.93 31.029999 52.869999 29.610001 51.389999 29.040001 C 52.27 28.57 52.869999 27.660004 52.869999 26.599998 L 52.869999 25.169998 L 58.639999 29.160004 L 58.639999 33.020004 L 61.599998 35.979996 C 61.889999 36.270004 62.369999 36.270004 62.66 35.979996 C 62.950001 35.690002 62.950001 35.209999 62.66 34.919998 L 60.139999 32.400002 L 60.139999 28.379997 L 53.139999 23.529999 L 59.68 23.529999 L 62.419998 21.010002 L 64.589996 21.010002 C 65 21.010002 65.339996 20.669998 65.339996 20.260002 C 65.339996 19.849998 65 19.510002 64.589996 19.510002 L 61.84 19.510002 L 59.099998 22.029999 L 52.459999 22.029999 L 60.139999 16.900002 L 60.139999 5.970001 L 62.66 3.519997 C 62.959999 3.230003 62.959999 2.760002 62.669998 2.459999 C 62.52 2.309998 62.330002 2.230003 62.130001 2.230003 C 61.939999 2.230003 61.75 2.300003 61.610001 2.440002 L 58.639999 5.330002 L 58.639999 16.099998 L 52.110001 20.459999 C 52.049999 19.699997 51.599998 19.07 50.950001 18.739998 C 53.330002 18.370003 55.16 16.330002 55.16 13.839996 L 55.16 10.599998 C 55.16 7.849998 52.93 5.629997 50.189999 5.629997 L 49.799999 5.629997 C 47.049999 5.629997 44.830002 7.860001 44.830002 10.599998 L 44.830002 13.839996 C 44.830002 16.32 46.66 18.370003 49.040001 18.739998 C 48.419998 19.050003 47.98 19.650002 47.889999 20.370003 L 41.490002 16.099998 L 41.490002 5.339996 L 38.5 2.449997 C 38.349998 2.309998 38.169998 2.239998 37.98 2.239998 C 37.779999 2.239998 37.59 2.32 37.439999 2.470001 C 37.150002 2.769997 37.16 3.239998 37.450001 3.529999 L 39.970001 5.980003 L 39.970001 16.919998 L 47.650002 22.050003 L 41.009998 22.050003 L 38.27 19.529999 L 35.52 19.529999 C 35.110001 19.529999 34.77 19.870003 34.77 20.279999 C 34.77 20.690002 35.110001 21.020004 35.52 21.020004 Z M 36.259998 62.630001 C 36.549999 62.34 36.549999 61.860001 36.259998 61.57 L 33.299999 58.599998 L 29.440001 58.599998 L 25.540001 52.970001 L 26.870001 52.970001 C 27.93 52.970001 28.85 52.369995 29.309999 51.490005 C 29.879999 52.970001 31.299999 54.029999 32.98 54.029999 C 33.779999 54.029999 34.509998 53.790001 35.130001 53.380005 L 38.650002 55.860001 L 41.830002 55.860001 C 42.240002 55.860001 42.580002 55.520004 42.580002 55.110001 C 42.580002 54.699997 42.240002 54.360001 41.830002 54.360001 L 39.130001 54.360001 L 36.23 52.309998 C 36.669998 51.68 36.919998 50.910004 36.919998 50.080002 C 36.919998 49.209999 36.630001 48.410004 36.150002 47.759995 L 39.130001 45.660004 L 41.830002 45.660004 C 42.240002 45.660004 42.580002 45.32 42.580002 44.910004 C 42.580002 44.5 42.240002 44.160004 41.830002 44.160004 L 38.650002 44.160004 L 35.02 46.720001 C 34.419998 46.360001 33.73 46.139999 32.98 46.139999 C 31.299999 46.139999 29.879999 47.199997 29.309999 48.68 C 28.84 47.800003 27.93 47.199997 26.870001 47.199997 L 25.440001 47.199997 L 29.43 41.43 L 33.290001 41.43 L 36.25 38.470001 C 36.540001 38.18 36.540001 37.699997 36.25 37.410004 C 35.959999 37.119995 35.48 37.119995 35.189999 37.410004 L 32.669998 39.93 L 28.65 39.93 L 23.799999 46.93 L 23.799999 40.400002 L 21.280001 37.660004 L 21.280001 35.490005 C 21.280001 35.080002 20.940001 34.740005 20.530001 34.740005 C 20.120001 34.740005 19.780001 35.080002 19.780001 35.490005 L 19.780001 38.240005 L 22.299999 40.979996 L 22.299999 47.619995 L 17.17 39.940002 L 6.24 39.940002 L 3.79 37.419998 C 3.5 37.119995 3.03 37.119995 2.73 37.410004 C 2.58 37.559998 2.5 37.75 2.5 37.949997 C 2.5 38.139999 2.57 38.330002 2.71 38.470001 L 5.6 41.440002 L 16.370001 41.440002 L 20.73 47.970001 C 19.969999 48.029999 19.34 48.479996 19.01 49.130005 C 18.639999 46.75 16.6 44.919998 14.11 44.919998 L 10.87 44.919998 C 8.12 44.919998 5.9 47.150002 5.9 49.889999 L 5.9 50.279999 C 5.9 53.029999 8.13 55.25 10.87 55.25 L 14.11 55.25 C 16.59 55.25 18.639999 53.419998 19.01 51.040001 C 19.32 51.660004 19.92 52.099998 20.639999 52.190002 L 16.370001 58.589996 L 5.61 58.589996 L 2.72 61.560001 C 2.57 61.720001 2.5 61.91 2.5 62.099998 C 2.5 62.299999 2.58 62.490002 2.73 62.639999 C 3.03 62.93 3.5 62.919998 3.79 62.630001 L 6.24 60.110001 L 17.18 60.110001 L 22.309999 52.43 L 22.309999 59.07 L 19.790001 61.810001 L 19.790001 64.559998 C 19.790001 64.970001 20.129999 65.309998 20.540001 65.309998 C 20.950001 65.309998 21.290001 64.970001 21.290001 64.559998 L 21.290001 62.389999 L 23.809999 59.650002 L 23.809999 53.099998 L 28.66 60.099998 L 32.68 60.099998 L 35.200001 62.619999 C 35.490002 62.919998 35.970001 62.919998 36.259998 62.630001 Z M 94.389999 58.599998 L 83.620003 58.599998 L 79.349998 52.199997 C 80.07 52.110001 80.669998 51.669998 80.980003 51.050003 C 81.349998 53.43 83.389999 55.259995 85.879997 55.259995 L 89.120003 55.259995 C 91.870003 55.259995 94.089996 53.029999 94.089996 50.290001 L 94.089996 49.900002 C 94.089996 47.150002 91.860001 44.93 89.120003 44.93 L 85.879997 44.93 C 83.400002 44.93 81.349998 46.759995 80.980003 49.139999 C 80.650002 48.5 80.010002 48.050003 79.260002 47.979996 L 83.620003 41.449997 L 94.389999 41.449997 L 97.279999 38.479996 C 97.419998 38.330002 97.489998 38.150002 97.489998 37.959999 C 97.489998 37.759995 97.410004 37.57 97.260002 37.419998 C 96.959999 37.130005 96.489998 37.139999 96.199997 37.43 L 93.75 39.949997 L 82.82 39.949997 L 77.690002 47.630005 L 77.690002 40.990005 L 80.209999 38.25 L 80.209999 35.5 C 80.209999 35.089996 79.870003 34.75 79.459999 34.75 C 79.050003 34.75 78.709999 35.089996 78.709999 35.5 L 78.709999 37.669998 L 76.190002 40.410004 L 76.190002 46.949997 L 71.339996 39.949997 L 67.32 39.949997 L 64.800003 37.43 C 64.510002 37.139999 64.029999 37.139999 63.740002 37.43 C 63.450001 37.720001 63.450001 38.199997 63.740002 38.490005 L 66.699997 41.449997 L 70.559998 41.449997 L 74.550003 47.220001 L 73.120003 47.220001 C 72.059998 47.220001 71.139999 47.82 70.68 48.699997 C 70.110001 47.220001 68.690002 46.160004 67.010002 46.160004 C 66.260002 46.160004 65.57 46.380005 64.970001 46.740005 L 61.34 44.18 L 58.16 44.18 C 57.75 44.18 57.41 44.520004 57.41 44.93 C 57.41 45.339996 57.75 45.68 58.16 45.68 L 60.860001 45.68 L 63.84 47.779999 C 63.360001 48.43 63.07 49.229996 63.07 50.099998 C 63.07 50.93 63.330002 51.690002 63.759998 52.330002 L 60.860001 54.380005 L 58.16 54.380005 C 57.75 54.380005 57.41 54.720001 57.41 55.130005 C 57.41 55.540001 57.75 55.880005 58.16 55.880005 L 61.34 55.880005 L 64.860001 53.400002 C 65.480003 53.809998 66.220001 54.050003 67.010002 54.050003 C 68.690002 54.050003 70.110001 52.990005 70.68 51.509995 C 71.150002 52.389999 72.059998 52.990005 73.120003 52.990005 L 74.449997 52.990005 L 70.550003 58.619995 L 66.699997 58.619995 L 63.740002 61.580002 C 63.450001 61.869999 63.450001 62.349998 63.740002 62.639999 C 64.029999 62.93 64.510002 62.93 64.800003 62.639999 L 67.32 60.119995 L 71.339996 60.119995 L 76.190002 53.119995 L 76.190002 59.660004 L 78.709999 62.400002 L 78.709999 64.57 C 78.709999 64.980003 79.050003 65.32 79.459999 65.32 C 79.870003 65.32 80.209999 64.980003 80.209999 64.57 L 80.209999 61.799999 L 77.690002 59.059998 L 77.690002 52.419998 L 82.82 60.099998 L 93.760002 60.099998 L 96.209999 62.619999 C 96.5 62.919998 96.970001 62.919998 97.269997 62.630001 C 97.419998 62.48 97.5 62.290001 97.5 62.09 C 97.5 61.900002 97.43 61.709999 97.290001 61.57 L 94.389999 58.599998 Z"/>
        </g>
    </g>
</svg>
