<?xml version="1.0" encoding="UTF-8"?>
<!-- Generated by Pixelmator Pro 3.4.3 -->
<svg width="3000" height="3000" viewBox="0 0 3000 3000" xmlns="http://www.w3.org/2000/svg">
    <path id="Path" fill="#000000" stroke="none" d="M 1708.329956 1804.169922 L 1093.75 1804.169922 C 1004.169922 1804.169922 952.080078 1859.375 952.080078 1938.544922 C 952.080078 2009.375 1000 2059.375 1068.75 2059.375 C 1148.955078 2059.375 1194.794922 2004.169922 1198.955078 1925 L 1377.080078 1925 C 1367.705078 2118.75 1246.875 2221.875 1066.669922 2221.875 C 897.919922 2221.875 771.875 2107.294922 771.875 1936.455078 C 771.875 1758.330078 904.169922 1634.375 1103.125 1634.375 L 1711.455078 1634.375 C 1916.670044 1634.375 2072.919922 1483.330078 2072.919922 1280.205078 C 2072.919922 1075 1933.330078 930.205078 1734.375 930.205078 C 1537.5 930.205078 1378.125 1073.955078 1378.125 1339.580078 L 1378.125 1513.5448 L 1197.919922 1513.5448 L 1197.919922 1339.580078 C 1197.919922 987.5 1423.955078 759.375 1737.500122 759.375 C 2036.455078 759.375 2254.169922 973.955078 2254.169922 1278.125 C 2256.25 1582.294922 2022.919922 1804.169922 1708.329956 1804.169922 Z M 1500 2750 C 2198.955078 2750 2750 2196.875 2750 1500 C 2750 803.125 2198.955078 250 1500 250 C 801.044922 250 250 805.205078 250 1500 C 250 2196.875 801.044922 2750 1500 2750 Z"/>
</svg>
