<?xml version="1.0" standalone="no"?>
<!DOCTYPE svg PUBLIC "-//W3C//DTD SVG 20010904//EN"
 "http://www.w3.org/TR/2001/REC-SVG-20010904/DTD/svg10.dtd">
<svg version="1.0" xmlns="http://www.w3.org/2000/svg"
 width="256.000000pt" height="256.000000pt" viewBox="0 0 256.000000 256.000000"
 preserveAspectRatio="xMidYMid meet">

<g transform="translate(0.000000,256.000000) scale(0.100000,-0.100000)"
fill="#000000" stroke="none">
<path d="M1350 2299 c-19 -11 -43 -31 -52 -42 -22 -27 -23 -86 -3 -113 24 -32
18 -44 -22 -44 -26 0 -50 -10 -77 -30 -21 -16 -69 -41 -107 -55 -72 -28 -109
-62 -109 -100 0 -14 -20 -38 -63 -73 -283 -229 -533 -630 -601 -964 -18 -85
-20 -198 -6 -268 9 -44 7 -58 -24 -225 -15 -83 -11 -103 21 -116 25 -9 103 3
159 27 30 12 37 12 66 -5 87 -51 90 -51 865 -51 449 0 731 4 742 10 26 13 51
81 51 136 0 88 -42 144 -110 144 -39 0 -110 18 -110 27 0 4 7 15 16 25 10 10
19 41 22 68 7 75 -34 189 -151 420 -85 168 -99 204 -104 258 -5 54 -3 66 15
85 29 31 44 75 37 108 -4 18 2 46 16 79 19 44 20 56 11 88 -6 20 -10 37 -9 38
1 1 88 46 192 99 105 53 198 104 209 114 43 38 58 89 54 182 -3 93 -15 121
-69 161 -70 52 -412 50 -577 -3 -28 -9 -40 -7 -84 15 -67 33 -147 35 -198 5z
m170 -44 c14 -7 43 -27 64 -44 31 -25 42 -29 53 -19 8 6 12 17 9 24 -9 24 145
54 276 54 l88 0 0 -26 c0 -40 50 -79 140 -109 l80 -27 0 -37 c0 -72 -27 -94
-239 -202 -106 -55 -201 -99 -210 -99 -20 0 -151 54 -236 98 -59 30 -116 81
-170 155 -33 45 -27 57 13 28 38 -26 62 -27 62 -2 0 12 -18 33 -45 52 -76 55
-94 101 -53 139 43 39 109 45 168 15z m-228 -217 c8 -7 28 -31 43 -53 77 -108
136 -151 299 -220 61 -25 118 -53 128 -62 22 -20 23 -51 3 -89 -8 -16 -15 -54
-15 -85 0 -130 -84 -116 -375 61 -226 138 -335 241 -335 316 0 29 4 32 70 58
38 15 88 41 112 57 50 33 49 33 70 17z m-323 -256 c-100 -114 -172 -333 -148
-455 16 -88 81 -137 182 -137 40 0 63 6 88 23 30 20 34 29 37 71 l3 48 32 -6
c82 -17 109 -18 137 -6 40 17 47 48 26 134 -16 70 -20 106 -12 106 3 0 27 -14
55 -31 47 -30 53 -38 96 -140 99 -235 183 -528 170 -590 -7 -32 -51 -75 -86
-84 -22 -5 -29 0 -53 35 -15 23 -83 99 -151 170 -68 71 -136 150 -150 175 -27
46 -51 57 -61 30 -11 -27 45 -103 176 -240 71 -74 141 -155 156 -180 28 -48
41 -53 104 -35 44 12 97 65 110 110 20 69 -33 282 -132 533 -27 71 -48 130
-45 133 2 2 33 -9 68 -26 35 -16 73 -30 84 -30 34 0 42 -13 49 -77 4 -34 18
-117 32 -185 34 -166 41 -334 20 -462 -9 -54 -19 -103 -22 -107 -3 -5 -19 -2
-36 7 -26 13 -49 15 -124 10 -130 -10 -159 7 -224 132 -50 95 -113 157 -180
176 -67 20 -243 30 -325 19 -50 -7 -60 -11 -60 -27 0 -18 9 -20 165 -21 242
-2 270 -17 371 -198 41 -73 52 -85 100 -110 51 -27 58 -28 149 -22 54 3 101 2
109 -3 7 -6 16 -32 18 -59 6 -62 -22 -122 -71 -153 -34 -21 -42 -21 -353 -18
l-318 3 -53 28 c-72 38 -120 91 -161 176 -19 39 -41 71 -48 71 -26 0 -26 -33
1 -89 40 -82 74 -128 120 -161 l40 -30 -92 0 c-355 0 -505 320 -350 748 104
286 303 570 541 770 55 46 65 29 16 -26z m141 -81 c37 -32 76 -63 85 -68 15
-9 12 -16 -24 -64 -49 -65 -79 -140 -94 -234 -6 -38 -16 -73 -21 -77 -19 -13
-96 -9 -126 7 -16 8 -35 25 -41 38 -30 54 -1 225 57 339 22 43 79 118 91 118
2 0 35 -27 73 -59z m166 -328 c-6 -6 -90 7 -106 17 -17 10 0 60 42 126 l31 49
19 -94 c10 -51 17 -96 14 -98z m654 -581 c40 -111 40 -162 -1 -196 -41 -35
-60 -33 -96 12 -30 37 -30 39 -21 102 9 61 5 237 -7 325 -4 34 2 25 45 -60 27
-55 63 -137 80 -183z m-55 -272 c22 0 69 -9 103 -20 35 -11 79 -20 97 -20 44
0 65 -29 65 -93 0 -48 -13 -85 -34 -99 -13 -9 -416 -11 -416 -2 0 3 8 18 18
32 24 34 42 87 42 122 0 15 6 43 14 61 7 19 16 43 20 54 7 19 9 19 30 -7 17
-22 30 -28 61 -28z m-1471 -121 c21 -28 36 -52 34 -54 -9 -10 -98 -28 -104
-22 -4 4 -2 24 4 46 7 21 12 48 12 60 0 32 12 26 54 -30z"/>
<path d="M1741 2201 c-8 -14 -7 -22 5 -32 12 -10 19 -9 36 8 11 12 17 26 14
32 -11 18 -44 13 -55 -8z"/>
<path d="M2025 390 c-9 -40 8 -61 30 -40 8 9 16 26 17 40 2 19 -2 26 -19 28
-17 3 -23 -3 -28 -28z"/>
</g>
</svg>
