<?xml version="1.0" encoding="UTF-8"?>
<!DOCTYPE svg PUBLIC "-//W3C//DTD SVG 1.1//EN" "http://www.w3.org/Graphics/SVG/1.1/DTD/svg11.dtd">
<svg xmlns="http://www.w3.org/2000/svg" xmlns:xlink="http://www.w3.org/1999/xlink" version="1.1" width="441px" height="41px" viewBox="-0.5 -0.5 441 41">
<defs>
<style type="text/css">
<!-- @import url(https://fonts.googleapis.com/css?family=Space+Grotesk);&#xa; -->
        <!-- path {
            stroke: black;            
        }
        @media (prefers-color-scheme: dark) {
            path { stroke: white; }
        } -->
</style></defs><g>
<path d="M 0 0 L 100 0 L 110 20 L 100 40 L 0 40 L 10 20 Z" fill="none" stroke="rgb(0, 0, 0)" stroke-miterlimit="10" pointer-events="all"/><g fill="rgb(0, 0, 0)" font-family="Space Grotesk" text-anchor="middle" font-size="12px"><text x="54.5" y="24.5">Node JS</text></g><path d="M 100 0 L 210 0 L 220 20 L 210 40 L 100 40 L 110 20 Z" fill="none" stroke="rgb(0, 0, 0)" stroke-miterlimit="10" pointer-events="all"/><g fill="rgb(0, 0, 0)" font-family="Space Grotesk" text-anchor="middle" font-size="12px"><text x="159.5" y="24.5">Express JS</text></g><path d="M 210 0 L 320 0 L 330 20 L 320 40 L 210 40 L 220 20 Z" fill="none" stroke="rgb(0, 0, 0)" stroke-miterlimit="10" pointer-events="all"/><g fill="rgb(0, 0, 0)" font-family="Space Grotesk" text-anchor="middle" font-size="12px"><text x="269.5" y="17.5">Parse </text><text x="269.5" y="31.5">Server</text></g><path d="M 320 0 L 430 0 L 440 20 L 430 40 L 320 40 L 330 20 Z" fill="none" stroke="rgb(0, 0, 0)" stroke-miterlimit="10" pointer-events="all"/><g fill="rgb(0, 0, 0)" font-family="Space Grotesk" text-anchor="middle" font-size="12px"><text x="379.5" y="24.5">Servable</text></g></g></svg>